<svg width="748" height="253" viewBox="0 0 748 253" fill="none" xmlns="http://www.w3.org/2000/svg">
<path d="M56 189.527L717.661 189.527" stroke="#1E1C1A" stroke-opacity="0.08" stroke-width="1.69874"/>
<path d="M56 26.5547L717.661 26.5547" stroke="#1E1C1A" stroke-opacity="0.08" stroke-width="1.69874"/>
<path d="M4.02 32H2.52V24.296H3.72L0.492 26.42V24.932L2.664 23.516H4.02V32ZM12.5434 32.12C11.7914 32.12 11.1794 31.948 10.7074 31.604C10.2434 31.26 9.90338 30.764 9.68738 30.116C9.47938 29.46 9.37538 28.672 9.37538 27.752C9.37538 26.368 9.62338 25.296 10.1194 24.536C10.6234 23.776 11.4314 23.396 12.5434 23.396C13.6554 23.396 14.4594 23.776 14.9554 24.536C15.4594 25.296 15.7114 26.368 15.7114 27.752C15.7114 29.144 15.4634 30.22 14.9674 30.98C14.4714 31.74 13.6634 32.12 12.5434 32.12ZM12.5434 30.86C13.1354 30.86 13.5634 30.62 13.8274 30.14C14.0914 29.66 14.2234 28.864 14.2234 27.752C14.2234 26.632 14.0914 25.836 13.8274 25.364C13.5634 24.884 13.1354 24.644 12.5434 24.644C11.9594 24.644 11.5314 24.884 11.2594 25.364C10.9954 25.836 10.8634 26.632 10.8634 27.752C10.8634 28.864 10.9954 29.66 11.2594 30.14C11.5234 30.62 11.9514 30.86 12.5434 30.86ZM22.9145 32.12C22.1625 32.12 21.5505 31.948 21.0785 31.604C20.6145 31.26 20.2745 30.764 20.0585 30.116C19.8505 29.46 19.7465 28.672 19.7465 27.752C19.7465 26.368 19.9945 25.296 20.4905 24.536C20.9945 23.776 21.8025 23.396 22.9145 23.396C24.0265 23.396 24.8305 23.776 25.3265 24.536C25.8305 25.296 26.0825 26.368 26.0825 27.752C26.0825 29.144 25.8345 30.22 25.3385 30.98C24.8425 31.74 24.0345 32.12 22.9145 32.12ZM22.9145 30.86C23.5065 30.86 23.9345 30.62 24.1985 30.14C24.4625 29.66 24.5945 28.864 24.5945 27.752C24.5945 26.632 24.4625 25.836 24.1985 25.364C23.9345 24.884 23.5065 24.644 22.9145 24.644C22.3305 24.644 21.9025 24.884 21.6305 25.364C21.3665 25.836 21.2345 26.632 21.2345 27.752C21.2345 28.864 21.3665 29.66 21.6305 30.14C21.8945 30.62 22.3225 30.86 22.9145 30.86ZM33.5616 26.636L37.2336 32H35.4456L32.5776 27.812L33.5616 26.636ZM32.0256 32H30.5136V23.516H32.0256V32ZM31.4616 30.056V28.112L35.2776 23.516H37.0776L31.4616 30.056Z" fill="#1E1C1A" fill-opacity="0.32"/>
<path d="M56 80.1289H717.661" stroke="#1E1C1A" stroke-opacity="0.08" stroke-width="1.69874"/>
<path d="M3.672 86.12C3.064 86.12 2.54 86.016 2.1 85.808C1.66 85.6 1.32 85.32 1.08 84.968C0.848 84.608 0.728 84.208 0.72 83.768H2.184C2.208 84.128 2.332 84.404 2.556 84.596C2.788 84.78 3.16 84.872 3.672 84.872C4.192 84.872 4.58 84.736 4.836 84.464C5.1 84.192 5.232 83.824 5.232 83.36C5.232 82.888 5.112 82.516 4.872 82.244C4.64 81.964 4.252 81.82 3.708 81.812C3.004 81.796 2.52 82.044 2.256 82.556H0.84L1.476 77.516H6.264V78.752H2.772L2.364 82.016L1.476 81.968C1.804 81.544 2.168 81.208 2.568 80.96C2.968 80.712 3.444 80.588 3.996 80.588C4.524 80.588 4.992 80.704 5.4 80.936C5.808 81.16 6.128 81.476 6.36 81.884C6.592 82.292 6.708 82.776 6.708 83.336C6.708 83.88 6.584 84.364 6.336 84.788C6.088 85.204 5.736 85.532 5.28 85.772C4.824 86.004 4.288 86.12 3.672 86.12ZM13.9848 86.12C13.2328 86.12 12.6208 85.948 12.1488 85.604C11.6848 85.26 11.3448 84.764 11.1288 84.116C10.9208 83.46 10.8168 82.672 10.8168 81.752C10.8168 80.368 11.0648 79.296 11.5608 78.536C12.0648 77.776 12.8728 77.396 13.9848 77.396C15.0968 77.396 15.9008 77.776 16.3968 78.536C16.9008 79.296 17.1528 80.368 17.1528 81.752C17.1528 83.144 16.9048 84.22 16.4088 84.98C15.9128 85.74 15.1048 86.12 13.9848 86.12ZM13.9848 84.86C14.5768 84.86 15.0048 84.62 15.2688 84.14C15.5328 83.66 15.6648 82.864 15.6648 81.752C15.6648 80.632 15.5328 79.836 15.2688 79.364C15.0048 78.884 14.5768 78.644 13.9848 78.644C13.4008 78.644 12.9728 78.884 12.7008 79.364C12.4368 79.836 12.3048 80.632 12.3048 81.752C12.3048 82.864 12.4368 83.66 12.7008 84.14C12.9648 84.62 13.3928 84.86 13.9848 84.86ZM24.6319 80.636L28.3039 86H26.5159L23.6479 81.812L24.6319 80.636ZM23.0959 86H21.5839V77.516H23.0959V86ZM22.5319 84.056V82.112L26.3479 77.516H28.1479L22.5319 84.056Z" fill="#1E1C1A" fill-opacity="0.32"/>
<path d="M56 135.402L717.661 135.402" stroke="#1E1C1A" stroke-opacity="0.08" stroke-width="1.69874"/>
<path d="M0.564 139.016L3.408 136.064C3.704 135.76 3.952 135.496 4.152 135.272C4.352 135.04 4.5 134.82 4.596 134.612C4.7 134.396 4.752 134.168 4.752 133.928C4.752 133.472 4.636 133.144 4.404 132.944C4.172 132.736 3.848 132.632 3.432 132.632C2.984 132.632 2.648 132.748 2.424 132.98C2.208 133.204 2.092 133.552 2.076 134.024H0.6C0.6 133.496 0.72 133.036 0.96 132.644C1.2 132.252 1.532 131.948 1.956 131.732C2.388 131.508 2.892 131.396 3.468 131.396C4.02 131.396 4.504 131.5 4.92 131.708C5.336 131.916 5.66 132.212 5.892 132.596C6.124 132.972 6.24 133.416 6.24 133.928C6.24 134.264 6.172 134.58 6.036 134.876C5.908 135.164 5.7 135.476 5.412 135.812C5.124 136.148 4.744 136.556 4.272 137.036L2.16 139.208L1.992 138.752H6.324V140H0.564V139.016ZM13.5629 140.12C12.8109 140.12 12.1989 139.948 11.7269 139.604C11.2629 139.26 10.9229 138.764 10.7069 138.116C10.4989 137.46 10.3949 136.672 10.3949 135.752C10.3949 134.368 10.6429 133.296 11.1389 132.536C11.6429 131.776 12.4509 131.396 13.5629 131.396C14.6749 131.396 15.4789 131.776 15.9749 132.536C16.4789 133.296 16.7309 134.368 16.7309 135.752C16.7309 137.144 16.4829 138.22 15.9869 138.98C15.4909 139.74 14.6829 140.12 13.5629 140.12ZM13.5629 138.86C14.1549 138.86 14.5829 138.62 14.8469 138.14C15.1109 137.66 15.2429 136.864 15.2429 135.752C15.2429 134.632 15.1109 133.836 14.8469 133.364C14.5829 132.884 14.1549 132.644 13.5629 132.644C12.9789 132.644 12.5509 132.884 12.2789 133.364C12.0149 133.836 11.8829 134.632 11.8829 135.752C11.8829 136.864 12.0149 137.66 12.2789 138.14C12.5429 138.62 12.9709 138.86 13.5629 138.86ZM24.21 134.636L27.882 140H26.094L23.226 135.812L24.21 134.636ZM22.674 140H21.162V131.516H22.674V140ZM22.11 138.056V136.112L25.926 131.516H27.726L22.11 138.056Z" fill="#1E1C1A" fill-opacity="0.32"/>
<path d="M4.02 194H2.52V186.296H3.72L0.492 188.42V186.932L2.664 185.516H4.02V194ZM12.5434 194.12C11.7914 194.12 11.1794 193.948 10.7074 193.604C10.2434 193.26 9.90338 192.764 9.68738 192.116C9.47938 191.46 9.37538 190.672 9.37538 189.752C9.37538 188.368 9.62338 187.296 10.1194 186.536C10.6234 185.776 11.4314 185.396 12.5434 185.396C13.6554 185.396 14.4594 185.776 14.9554 186.536C15.4594 187.296 15.7114 188.368 15.7114 189.752C15.7114 191.144 15.4634 192.22 14.9674 192.98C14.4714 193.74 13.6634 194.12 12.5434 194.12ZM12.5434 192.86C13.1354 192.86 13.5634 192.62 13.8274 192.14C14.0914 191.66 14.2234 190.864 14.2234 189.752C14.2234 188.632 14.0914 187.836 13.8274 187.364C13.5634 186.884 13.1354 186.644 12.5434 186.644C11.9594 186.644 11.5314 186.884 11.2594 187.364C10.9954 187.836 10.8634 188.632 10.8634 189.752C10.8634 190.864 10.9954 191.66 11.2594 192.14C11.5234 192.62 11.9514 192.86 12.5434 192.86ZM23.1905 188.636L26.8625 194H25.0745L22.2065 189.812L23.1905 188.636ZM21.6545 194H20.1425V185.516H21.6545V194ZM21.0905 192.056V190.112L24.9065 185.516H26.7065L21.0905 192.056Z" fill="#1E1C1A" fill-opacity="0.32"/>
<path d="M56 242.555L717.732 242.555" stroke="#1E1C1A" stroke-opacity="0.08" stroke-width="1.69874"/>
<path d="M3.684 244.12C2.932 244.12 2.32 243.948 1.848 243.604C1.384 243.26 1.044 242.764 0.828 242.116C0.62 241.46 0.516 240.672 0.516 239.752C0.516 238.368 0.764 237.296 1.26 236.536C1.764 235.776 2.572 235.396 3.684 235.396C4.796 235.396 5.6 235.776 6.096 236.536C6.6 237.296 6.852 238.368 6.852 239.752C6.852 241.144 6.604 242.22 6.108 242.98C5.612 243.74 4.804 244.12 3.684 244.12ZM3.684 242.86C4.276 242.86 4.704 242.62 4.968 242.14C5.232 241.66 5.364 240.864 5.364 239.752C5.364 238.632 5.232 237.836 4.968 237.364C4.704 236.884 4.276 236.644 3.684 236.644C3.1 236.644 2.672 236.884 2.4 237.364C2.136 237.836 2.004 238.632 2.004 239.752C2.004 240.864 2.136 241.66 2.4 242.14C2.664 242.62 3.092 242.86 3.684 242.86Z" fill="#1E1C1A" fill-opacity="0.32"/>
<path d="M268.183 103.184L203.005 167.408C193.7 176.576 182.926 184.121 171.129 189.731L57 244H748V0L672.71 39.7259C660.093 46.3831 648.8 55.2915 639.388 66.0116L574.551 139.859C565.011 150.725 553.106 159.258 539.751 164.802C497.373 182.392 448.483 167.014 423.804 128.332L418.597 120.169C392.763 79.6765 341.259 64.0738 297.297 83.4226C286.473 88.1867 276.607 94.8831 268.183 103.184Z" fill="#E8E1DA"/>
</svg>
