<svg width="108" height="32" viewBox="0 0 108 32" fill="none" xmlns="http://www.w3.org/2000/svg">
<g clip-path="url(#clip0_16067_7946)">
<path d="M2.56333 21.31V14.5592H0.766214V13.1768L2.56333 12.9234L3.13933 9.90515H4.63693V12.9234H7.17133V14.5823H4.63693V21.2408C4.63693 22.2085 4.93645 23.061 6.24973 23.061C6.59533 23.061 7.03309 23.0149 7.63213 22.8767V24.6277C7.10221 24.7429 6.50317 24.789 6.01933 24.789C3.53101 24.789 2.56333 23.1071 2.56333 21.31ZM8.22001 18.7295C8.22001 15.2044 10.524 12.716 13.7957 12.716C17.0904 12.716 19.3714 15.2044 19.3714 18.7295V19.2364H10.3397C10.501 21.5404 11.8373 22.9458 13.7957 22.9458C15.3624 22.9458 16.5144 22.1164 16.9983 20.6879L18.9797 21.1026C18.3346 23.2914 16.3992 24.7429 13.7957 24.7429C10.524 24.7429 8.22001 22.2546 8.22001 18.7295ZM13.7957 14.5132C11.9755 14.5132 10.6853 15.7343 10.3858 17.7388H17.2056C16.9752 15.7343 15.6619 14.5132 13.7957 14.5132ZM20.3785 12.9234H22.2217C22.383 13.4994 22.4982 14.0754 22.5673 14.6284C23.3967 13.5224 24.3874 12.7391 25.7929 12.7391L26.0002 14.5592C23.9958 14.5362 22.5903 15.8264 22.5903 17.9V24.5586H20.5167V16.2642C20.5167 14.6284 20.4937 13.7989 20.3785 12.9234ZM26.5894 12.9234H28.4326C28.5939 13.4994 28.7091 14.0754 28.7782 14.6284C29.6076 13.5224 30.5983 12.7391 32.0038 12.7391L32.2111 14.5592C30.2067 14.5362 28.8012 15.8264 28.8012 17.9V24.5586H26.7276V16.2642C26.7276 14.6284 26.7046 13.7989 26.5894 12.9234ZM41.9986 24.5586H40.1785C40.0402 24.0978 39.902 23.4066 39.8559 22.9458C39.0495 24.0287 37.8975 24.766 36.3308 24.766C33.9116 24.766 32.2527 23.2914 32.2527 21.1948C32.2527 19.0981 34.0498 17.9922 37.0681 17.6236L39.7868 17.324V16.6559C39.7868 15.3887 38.8421 14.5132 37.4828 14.5132C36.1925 14.5132 35.2249 15.0431 34.8793 16.1029L32.8517 15.8034C33.3817 13.9141 35.1557 12.716 37.5058 12.716C40.1324 12.716 41.8604 14.421 41.8604 17.0245V21.2408C41.8604 22.8536 41.9065 23.6831 41.9986 24.5586ZM36.6303 23.0149C38.5657 23.0149 39.7868 21.7247 39.7868 19.8584V18.7756L37.0911 19.0981C35.4092 19.3055 34.3493 19.9736 34.3493 21.1487C34.3493 22.2316 35.2709 23.0149 36.6303 23.0149ZM43.6044 17.4623V15.7573H58.7878V17.4623H43.6044ZM61.6537 21.31V14.5592H59.8566V13.1768L61.6537 12.9234L62.2297 9.90515H63.7273V12.9234H66.2617V14.5823H63.7273V21.2408C63.7273 22.2085 64.0268 23.061 65.3401 23.061C65.6857 23.061 66.1235 23.0149 66.7225 22.8767V24.6277C66.1926 24.7429 65.5936 24.789 65.1097 24.789C62.6214 24.789 61.6537 23.1071 61.6537 21.31ZM78.2368 18.7295C78.2368 22.2546 75.9328 24.7429 72.6611 24.7429C69.3894 24.7429 67.0854 22.2546 67.0854 18.7295C67.0854 15.1813 69.3894 12.716 72.6611 12.716C75.9328 12.716 78.2368 15.1813 78.2368 18.7295ZM69.182 18.7295C69.182 21.333 70.5414 22.9919 72.6611 22.9919C74.7808 22.9919 76.1632 21.333 76.1632 18.7295C76.1632 16.149 74.7808 14.5132 72.6611 14.5132C70.5414 14.5132 69.182 16.149 69.182 18.7295ZM79.3789 12.9234H81.2221C81.3833 13.4994 81.4985 14.0754 81.5677 14.6284C82.3971 13.5224 83.3878 12.7391 84.7933 12.7391L85.0006 14.5592C82.9961 14.5362 81.5907 15.8264 81.5907 17.9V24.5586H79.5171V16.2642C79.5171 14.6284 79.4941 13.7989 79.3789 12.9234ZM89.5296 24.5586L84.9677 12.9234H87.1104L90.5203 21.9551L93.9072 12.9234H96.0038L91.1194 25.5493C90.4282 27.3925 89.5987 29.4431 86.88 29.4431C86.3501 29.4431 85.728 29.374 85.152 29.2127V27.4386C85.8893 27.669 86.3501 27.7151 86.7418 27.7151C88.2854 27.7151 88.8384 26.4479 89.2531 25.2728L89.5296 24.5586Z" fill="#1F1915"/>
<path d="M99.9365 9.15662H102.852V9.79262H101.748V12.7326H101.04V9.79262H99.9365V9.15662ZM103.92 12.7326H103.212V9.15662H104.028L105.084 11.7126L106.152 9.15662H106.956V12.7326H106.248V10.4406L105.3 12.7326H104.868L103.92 10.4526V12.7326Z" fill="#1F1915"/>
</g>
<defs>
<clipPath id="clip0_16067_7946">
<rect width="106.56" height="30.72" fill="white" transform="translate(0.601562 0.839844)"/>
</clipPath>
</defs>
</svg>
