<svg width="77" height="39" viewBox="0 0 77 39" fill="none" xmlns="http://www.w3.org/2000/svg">
<path d="M56.6772 27.4177C56.0551 27.4177 55.4871 27.3136 54.9732 27.1054C54.4661 26.904 54.0266 26.6186 53.6547 26.2492C53.2828 25.8732 52.9954 25.4333 52.7926 24.9297C52.5897 24.4261 52.4883 23.8754 52.4883 23.2778C52.4883 22.7003 52.5931 22.1597 52.8027 21.6561C53.0123 21.1525 53.3065 20.7093 53.6851 20.3265C54.0638 19.9438 54.51 19.6449 55.0239 19.4301C55.5378 19.2085 56.0957 19.0977 56.6975 19.0977C57.306 19.0977 57.8639 19.2085 58.371 19.4301C58.8781 19.6449 59.3142 19.9471 59.6794 20.3366C60.0513 20.7194 60.3353 21.1625 60.5314 21.6662C60.7342 22.1698 60.8356 22.7104 60.8356 23.2879C60.8356 23.8587 60.7274 24.3959 60.5111 24.8995C60.3015 25.3964 60.0073 25.8329 59.6287 26.2089C59.25 26.585 58.8071 26.8804 58.3 27.0953C57.7996 27.3102 57.2587 27.4177 56.6772 27.4177ZM56.7076 26.8435C57.235 26.8435 57.7083 26.7495 58.1276 26.5615C58.5468 26.3735 58.9052 26.1149 59.2027 25.7859C59.5002 25.4568 59.7267 25.0774 59.8822 24.6477C60.0445 24.2179 60.1257 23.7613 60.1257 23.2778C60.1257 22.7943 60.0445 22.3377 59.8822 21.9079C59.72 21.4714 59.4867 21.0887 59.1824 20.7596C58.8849 20.4239 58.5231 20.162 58.0971 19.974C57.6779 19.7792 57.2046 19.6819 56.6772 19.6819C56.1633 19.6819 55.6933 19.7792 55.2673 19.974C54.8414 20.162 54.4728 20.4239 54.1618 20.7596C53.8575 21.0887 53.6209 21.4714 53.4518 21.9079C53.2895 22.3377 53.2084 22.7943 53.2084 23.2778C53.2084 23.7613 53.2895 24.2179 53.4518 24.6477C53.6141 25.0774 53.8474 25.4568 54.1517 25.7859C54.4559 26.1149 54.8245 26.3735 55.2572 26.5615C55.69 26.7495 56.1734 26.8435 56.7076 26.8435ZM54.6689 25.5139V25.0707C54.8245 25.0573 54.9428 25.0237 55.0239 24.97C55.1118 24.9163 55.1558 24.7518 55.1558 24.4764V21.9281C55.1558 21.7938 55.1592 21.6729 55.1659 21.5655C55.1727 21.4513 55.1794 21.3674 55.1862 21.3136L54.6689 21.3338V20.81C54.8853 20.81 55.0983 20.81 55.3079 20.81C55.5243 20.8033 55.7373 20.7999 55.9469 20.7999C56.1633 20.7999 56.3763 20.7999 56.5859 20.7999C57.1809 20.7999 57.6542 20.9107 58.0059 21.1323C58.3642 21.3472 58.5366 21.7233 58.5231 22.2605C58.5164 22.4485 58.4724 22.6298 58.3913 22.8044C58.3169 22.979 58.1952 23.1334 58.0261 23.2677C57.8639 23.3953 57.6509 23.496 57.3872 23.5699C57.4751 23.6035 57.5494 23.6606 57.6103 23.7411C57.6711 23.8217 57.732 23.909 57.7929 24.003C57.9957 24.3119 58.1478 24.5436 58.2493 24.698C58.3507 24.8458 58.4386 24.9431 58.513 24.9901C58.5874 25.0372 58.682 25.064 58.797 25.0707V25.5139H57.732C57.6509 25.4535 57.5663 25.3696 57.4784 25.2621C57.3905 25.1547 57.3026 25.0271 57.2147 24.8793C57.0119 24.5436 56.8665 24.2985 56.7786 24.144C56.6907 23.9896 56.6332 23.8889 56.6062 23.8419C56.5859 23.7881 56.5622 23.7445 56.5352 23.7109C56.4676 23.7109 56.4033 23.7109 56.3425 23.7109C56.2884 23.7109 56.2241 23.7109 56.1498 23.7109V24.3959C56.1498 24.5167 56.1464 24.6376 56.1396 24.7585C56.1396 24.8726 56.1396 24.9566 56.1396 25.0103L56.7076 24.9901V25.5139H54.6689ZM56.4337 23.1368C56.6569 23.1368 56.8428 23.0999 56.9916 23.026C57.1471 22.9521 57.2621 22.8447 57.3364 22.7037C57.4176 22.5626 57.4582 22.3948 57.4582 22.2C57.4582 21.9381 57.4041 21.7501 57.2959 21.636C57.1877 21.5151 57.0626 21.4412 56.9206 21.4144C56.7786 21.3808 56.6603 21.364 56.5656 21.364C56.4236 21.364 56.3188 21.4009 56.2512 21.4748C56.1836 21.5419 56.1498 21.6863 56.1498 21.9079V23.1066C56.2039 23.12 56.2512 23.1301 56.2918 23.1368C56.3323 23.1368 56.3797 23.1368 56.4337 23.1368Z" fill="#1F1915"/>
<path d="M46.5078 33.5047C45.5215 33.5047 44.6448 33.2863 43.8777 32.8494C43.1106 32.3988 42.5147 31.7708 42.0901 30.9652C41.6654 30.146 41.4531 29.1835 41.4531 28.0775C41.4531 27.1218 41.6654 26.2275 42.0901 25.3947C42.5147 24.5618 43.1106 23.8928 43.8777 23.3876C44.6585 22.8688 45.5626 22.6094 46.59 22.6094C47.1653 22.6094 47.7201 22.6913 48.2543 22.8551C48.7885 23.019 49.268 23.292 49.6926 23.6743C50.1173 24.0566 50.4529 24.5618 50.6994 25.1899C50.9597 25.8179 51.083 26.5825 51.0693 27.4836L44.1654 27.6065C44.1654 28.453 44.2613 29.2039 44.453 29.8593C44.6585 30.501 44.9873 31.013 45.4393 31.3953C45.8913 31.7639 46.4872 31.9483 47.2269 31.9483C47.5557 31.9483 47.905 31.8936 48.2748 31.7844C48.6584 31.6615 49.0351 31.484 49.4049 31.2519C49.7748 31.0062 50.1036 30.7058 50.3912 30.3508L51.172 31.0676C50.72 31.723 50.22 32.2281 49.6721 32.5831C49.1241 32.9381 48.5762 33.1771 48.0283 33.2999C47.4803 33.4365 46.9735 33.5047 46.5078 33.5047ZM44.2681 26.3777H48.542C48.5283 25.8316 48.4461 25.3742 48.2954 25.0055C48.1584 24.6232 47.9529 24.3365 47.679 24.1454C47.405 23.9406 47.0694 23.8382 46.6721 23.8382C46.0009 23.8382 45.4599 24.0635 45.0489 24.514C44.6517 24.9509 44.3914 25.5721 44.2681 26.3777Z" fill="#1F1915"/>
<path d="M36.8213 33.5047C35.9035 33.5047 35.0542 33.2999 34.2734 32.8903C33.5063 32.4807 32.8899 31.8868 32.4242 31.1086C31.9721 30.3167 31.7461 29.3678 31.7461 28.2619C31.7461 27.5109 31.8762 26.8009 32.1365 26.1319C32.3968 25.4493 32.7598 24.8485 33.2255 24.3297C33.7049 23.7972 34.2734 23.3808 34.9309 23.0804C35.5884 22.7664 36.3144 22.6094 37.1089 22.6094C37.9445 22.6094 38.65 22.7391 39.2253 22.9985C39.8006 23.2443 40.239 23.5788 40.5404 24.002C40.8417 24.4116 40.9924 24.8485 40.9924 25.3127C40.9924 25.6814 40.8828 26.0022 40.6636 26.2753C40.4582 26.5484 40.1568 26.6917 39.7596 26.7054C39.2938 26.719 38.9651 26.5893 38.7733 26.3163C38.5952 26.0295 38.5062 25.7633 38.5062 25.5175C38.5062 25.381 38.5267 25.2376 38.5678 25.0875C38.6089 24.9236 38.6774 24.7734 38.7733 24.6369C38.6774 24.3911 38.5199 24.2136 38.3007 24.1044C38.0815 23.9815 37.8555 23.8996 37.6226 23.8587C37.3898 23.8177 37.2048 23.804 37.0679 23.8177C36.3144 23.845 35.6912 24.1863 35.198 24.8417C34.7049 25.4971 34.4583 26.4528 34.4583 27.7089C34.4583 28.4598 34.5611 29.1561 34.7666 29.7979C34.9857 30.4259 35.3145 30.9379 35.7528 31.3339C36.1912 31.7161 36.7528 31.9141 37.4377 31.9278C38.0404 31.9414 38.6226 31.7981 39.1842 31.4977C39.7459 31.1837 40.2047 30.7809 40.5609 30.2894L41.3828 31.0471C40.9308 31.6888 40.4445 32.1872 39.9239 32.5422C39.4034 32.8972 38.876 33.1429 38.3418 33.2795C37.8213 33.4296 37.3144 33.5047 36.8213 33.5047Z" fill="#1F1915"/>
<path d="M28.1192 33.1771C28.0781 32.9723 28.0507 32.8016 28.037 32.6651C28.037 32.5149 28.0302 32.3442 28.0165 32.1531C27.5507 32.6173 27.0507 32.9586 26.5165 33.1771C25.996 33.3955 25.4549 33.5047 24.8933 33.5047C23.9618 33.5047 23.2426 33.2521 22.7358 32.747C22.2427 32.2418 21.9961 31.6206 21.9961 30.8833C21.9961 30.2279 22.1742 29.675 22.5303 29.2244C22.8865 28.7602 23.3522 28.3847 23.9275 28.098C24.5029 27.7976 25.1398 27.5724 25.8384 27.4222C26.5371 27.2583 27.2288 27.1696 27.9137 27.1559V26.0295C27.9137 25.6336 27.8658 25.2718 27.7699 24.9441C27.6877 24.6028 27.5302 24.3365 27.2973 24.1454C27.0644 23.9406 26.722 23.8382 26.2699 23.8382C25.9686 23.8518 25.6604 23.9201 25.3453 24.043C25.0439 24.1522 24.8042 24.3297 24.6262 24.5755C24.7357 24.6983 24.8042 24.8349 24.8316 24.9851C24.859 25.1216 24.8727 25.2445 24.8727 25.3537C24.8727 25.5995 24.7768 25.8589 24.5851 26.1319C24.3933 26.3913 24.0851 26.5142 23.6604 26.5006C23.2906 26.4869 23.0029 26.3572 22.7974 26.1115C22.6057 25.8657 22.5098 25.5721 22.5098 25.2308C22.5098 24.712 22.6947 24.2614 23.0646 23.8791C23.4481 23.4832 23.9618 23.176 24.6056 22.9575C25.2494 22.7254 25.9686 22.6094 26.7631 22.6094C27.9411 22.6094 28.8452 22.9166 29.4753 23.531C30.1054 24.1454 30.4137 25.1284 30.4 26.4801C30.4 26.958 30.4 27.3949 30.4 27.7908C30.4 28.1731 30.3931 28.5622 30.3794 28.9582C30.3794 29.3405 30.3794 29.7705 30.3794 30.2484C30.3794 30.4532 30.3726 30.7126 30.3589 31.0267C30.3452 31.327 30.3246 31.6274 30.2972 31.9278C30.5438 31.9005 30.7904 31.8868 31.0369 31.8868C31.2972 31.8732 31.5095 31.8595 31.6739 31.8459V33.1771H28.1192ZM27.8932 28.3643C27.4822 28.3916 27.0781 28.4598 26.6809 28.5691C26.2836 28.6646 25.9275 28.8012 25.6124 28.9787C25.2974 29.1561 25.0439 29.3814 24.8522 29.6545C24.6741 29.9139 24.5919 30.2143 24.6056 30.5556C24.6193 30.9789 24.7563 31.2929 25.0166 31.4977C25.2768 31.6888 25.5782 31.7844 25.9206 31.7844C26.3179 31.7844 26.674 31.7025 26.9891 31.5387C27.3179 31.3748 27.6192 31.1564 27.8932 30.8833C27.8932 30.7468 27.8932 30.6034 27.8932 30.4532C27.8932 30.303 27.8932 30.1528 27.8932 30.0027C27.8932 29.8115 27.8932 29.5726 27.8932 29.2859C27.8932 28.9991 27.8932 28.6919 27.8932 28.3643Z" fill="#1F1915"/>
<path d="M10.7209 38.3995V37.314C11.1182 37.314 11.399 37.2253 11.5634 37.0478C11.7415 36.8839 11.851 36.645 11.8921 36.331C11.9332 36.0169 11.9538 35.662 11.9538 35.266L11.9743 26.1934C11.9743 25.9476 11.9743 25.6882 11.9743 25.4151C11.988 25.1421 12.0154 24.8622 12.0565 24.5755C11.8236 24.5891 11.5634 24.6028 11.2757 24.6164C11.0018 24.6301 10.7757 24.6437 10.5977 24.6574V23.3262C11.2278 23.3262 11.7346 23.2989 12.1182 23.2443C12.5154 23.176 12.8168 23.0941 13.0222 22.9985C13.2414 22.9029 13.3989 22.8142 13.4948 22.7323H14.3784C14.4058 22.8688 14.4263 23.0326 14.44 23.2238C14.4537 23.4149 14.4674 23.5924 14.4811 23.7563C14.9331 23.3603 15.4126 23.0736 15.9194 22.8961C16.4262 22.7049 16.9125 22.6094 17.3783 22.6094C18.2002 22.6094 18.933 22.821 19.5768 23.2443C20.2207 23.6539 20.7275 24.2478 21.0973 25.026C21.4672 25.7906 21.6521 26.6985 21.6521 27.7499C21.6521 28.8694 21.4261 29.8661 20.9741 30.7399C20.5357 31.6001 19.933 32.2759 19.1659 32.7675C18.3988 33.259 17.5153 33.5047 16.5153 33.5047C16.1043 33.5047 15.7345 33.4569 15.4057 33.3614C15.077 33.2795 14.7688 33.1702 14.4811 33.0337V35.4708C14.4811 35.6893 14.4743 35.9487 14.4606 36.2491C14.4606 36.5631 14.44 36.8635 14.3989 37.1502C14.6181 37.1229 14.851 37.1024 15.0975 37.0887C15.3441 37.0887 15.5496 37.0887 15.7139 37.0887V38.3995H10.7209ZM16.2893 32.2145C16.9194 32.2008 17.4262 32.0097 17.8098 31.6411C18.207 31.2588 18.4947 30.7536 18.6728 30.1255C18.8508 29.4975 18.9399 28.8148 18.9399 28.0775C18.9399 27.4085 18.8508 26.7736 18.6728 26.1729C18.5084 25.5721 18.2413 25.0875 17.8714 24.7188C17.5016 24.3502 17.0084 24.1659 16.392 24.1659C16.0085 24.1795 15.6455 24.2751 15.303 24.4526C14.9742 24.6301 14.7003 24.8622 14.4811 25.1489C14.4811 25.4493 14.4811 25.7565 14.4811 26.0705C14.4811 26.3845 14.4811 26.719 14.4811 27.074C14.4811 27.429 14.4811 27.8318 14.4811 28.2823C14.4811 28.7192 14.4811 29.2176 14.4811 29.7774C14.4811 30.3372 14.4811 30.9789 14.4811 31.7025C14.7003 31.8527 14.9674 31.9756 15.2824 32.0711C15.5975 32.1667 15.9331 32.2145 16.2893 32.2145Z" fill="#1F1915"/>
<path d="M8.4798 23.3489C8.38391 22.6253 8.18528 21.9972 7.88392 21.4647C7.58256 20.9186 7.17846 20.5022 6.67163 20.2155C6.17849 19.9151 5.58262 19.7649 4.88401 19.7649C4.2128 19.7649 3.65117 19.9561 3.19913 20.3383C2.76079 20.7206 2.54161 21.1917 2.54161 21.7515C2.54161 22.2157 2.67175 22.6184 2.93201 22.9598C3.20598 23.3011 3.59638 23.6151 4.10321 23.9019C4.61005 24.1749 5.21277 24.4617 5.91138 24.762C6.43191 24.9805 6.95929 25.2262 7.49352 25.4993C8.02775 25.7587 8.52089 26.0727 8.97293 26.4414C9.42497 26.81 9.78798 27.2401 10.0619 27.7316C10.3496 28.2095 10.4934 28.7829 10.4934 29.4519C10.4934 30.2438 10.2811 30.947 9.85647 31.5614C9.44552 32.1758 8.8565 32.6537 8.0894 32.995C7.3223 33.3363 6.41821 33.507 5.37715 33.507C4.80182 33.507 4.19225 33.4182 3.54843 33.2407C2.90462 33.0769 2.31559 32.8243 1.78136 32.483L1.84301 33.3636H0.445787L0.404692 28.7147H1.57589C1.72657 29.8752 2.15806 30.7558 2.87037 31.3566C3.58268 31.9437 4.43882 32.2372 5.43879 32.2372C5.94562 32.2372 6.39767 32.1485 6.79491 31.971C7.19216 31.7798 7.50037 31.5273 7.71954 31.2132C7.95241 30.8855 8.06885 30.5169 8.06885 30.1073C8.06885 29.5748 7.90447 29.1379 7.57571 28.7966C7.24695 28.4553 6.82916 28.1617 6.32232 27.9159C5.81549 27.6702 5.28811 27.4313 4.74018 27.1991C4.12376 26.9397 3.54159 26.6667 2.99366 26.3799C2.44573 26.0796 1.95944 25.7451 1.5348 25.3764C1.12385 24.9941 0.795091 24.5572 0.548523 24.0657C0.315654 23.5742 0.199219 22.9939 0.199219 22.3249C0.199219 21.929 0.274559 21.5125 0.425239 21.0756C0.57592 20.6251 0.822488 20.2086 1.16494 19.8263C1.5211 19.4441 1.99369 19.13 2.58271 18.8843C3.17173 18.6385 3.90459 18.5156 4.78127 18.5156C5.3292 18.5156 5.92508 18.5975 6.56889 18.7614C7.22641 18.9116 7.80173 19.1642 8.29487 19.5191L8.21268 18.659H9.63045V23.3489H8.4798Z" fill="#1F1915"/>
<path d="M68.4524 14.1736C68.8497 14.1736 69.1305 14.0917 69.2949 13.9279C69.4592 13.7504 69.562 13.5046 69.6031 13.1906C69.6442 12.8766 69.6647 12.5216 69.6647 12.1256V8.27541C69.6647 8.02965 69.6716 7.77023 69.6853 7.49717C69.699 7.2241 69.7195 6.94421 69.7469 6.65749C69.514 6.67114 69.2606 6.68479 68.9867 6.69845C68.7127 6.69845 68.4867 6.70527 68.3086 6.71893V5.40821H69.0688C69.6168 5.40821 70.0757 5.34677 70.4455 5.22389C70.8154 5.08735 71.0756 4.95082 71.2263 4.81429H72.0893C72.1167 4.97813 72.1372 5.23754 72.1509 5.59253C72.1646 5.94751 72.1715 6.3025 72.1715 6.65749C72.4866 6.24789 72.8153 5.89973 73.1578 5.61301C73.5002 5.31263 73.8495 5.08735 74.2057 4.93717C74.5755 4.77333 74.9522 4.69141 75.3358 4.69141C75.7741 4.69141 76.1577 4.81429 76.4864 5.06005C76.8289 5.30581 77.0001 5.70175 77.0001 6.24789C77.0001 6.42538 76.9522 6.61653 76.8563 6.82133C76.7741 7.02613 76.6371 7.19679 76.4453 7.33333C76.2673 7.46986 76.0207 7.53813 75.7056 7.53813C75.418 7.53813 75.144 7.44938 74.8837 7.27189C74.6372 7.08074 74.507 6.78037 74.4933 6.37077C74.2057 6.35711 73.9043 6.45951 73.5893 6.67797C73.2879 6.89642 73.0139 7.16266 72.7674 7.47669C72.5208 7.79071 72.329 8.11157 72.192 8.43925L72.2126 12.3304C72.2126 12.5489 72.2057 12.8151 72.192 13.1292C72.1783 13.4295 72.1578 13.7231 72.1304 14.0098C72.3496 13.9825 72.5824 13.9688 72.829 13.9688C73.0756 13.9552 73.281 13.9484 73.4454 13.9484V15.2591H68.4524V14.1736Z" fill="#1F1915"/>
<path d="M62.7776 15.5868C61.805 15.5868 60.9215 15.3751 60.127 14.9519C59.3325 14.515 58.7024 13.9074 58.2367 13.1292C57.7846 12.3373 57.5586 11.4157 57.5586 10.3644C57.5586 9.25845 57.7915 8.27541 58.2572 7.41525C58.7229 6.55509 59.3462 5.88607 60.127 5.40821C60.9215 4.93034 61.7913 4.69141 62.7365 4.69141C63.7091 4.69141 64.5858 4.90986 65.3666 5.34677C66.1474 5.78367 66.7638 6.39125 67.2158 7.16949C67.6816 7.94773 67.9145 8.86933 67.9145 9.93429C67.9145 11.0539 67.6884 12.0437 67.2364 12.9039C66.798 13.7504 66.1885 14.4126 65.4077 14.8904C64.6406 15.3547 63.7639 15.5868 62.7776 15.5868ZM62.8804 14.3375C63.4968 14.3375 63.9694 14.1463 64.2981 13.764C64.6269 13.3818 64.8529 12.8971 64.9762 12.31C65.1132 11.7092 65.1817 11.0948 65.1817 10.4668C65.1817 9.93429 65.1337 9.39498 65.0378 8.84885C64.9556 8.30271 64.8187 7.81119 64.6269 7.37429C64.4351 6.92373 64.1817 6.56874 63.8666 6.30933C63.5516 6.03626 63.168 5.89973 62.716 5.89973C62.1133 5.91338 61.6338 6.11135 61.2777 6.49365C60.9215 6.87594 60.6612 7.36063 60.4969 7.94773C60.3462 8.53482 60.2708 9.15605 60.2708 9.81141C60.2708 10.5487 60.3599 11.2723 60.538 11.9823C60.716 12.6786 60.9968 13.252 61.3804 13.7026C61.764 14.1395 62.2639 14.3511 62.8804 14.3375Z" fill="#1F1915"/>
<path d="M52.347 14.1722C52.7442 14.1722 53.025 14.0902 53.1894 13.9264C53.3538 13.7489 53.4565 13.5031 53.4976 13.1891C53.5387 12.8751 53.5592 12.5201 53.5592 12.1242V8.2944C53.5592 8.06229 53.5661 7.80971 53.5798 7.53664C53.5935 7.24992 53.614 6.95637 53.6414 6.656C53.4086 6.66965 53.1552 6.68331 52.8812 6.69696C52.6072 6.71061 52.3812 6.72427 52.2031 6.73792V5.40672C52.8195 5.40672 53.3264 5.37941 53.7236 5.3248C54.1346 5.25653 54.4496 5.17461 54.6688 5.07904C54.9017 4.98347 55.066 4.89472 55.1619 4.8128H56.0866V12.329C56.0866 12.5474 56.0797 12.8137 56.066 13.1277C56.066 13.4281 56.0455 13.7216 56.0044 14.0083C56.2236 13.981 56.4564 13.9674 56.703 13.9674C56.9633 13.9537 57.1756 13.9469 57.34 13.9469V15.2576H52.347V14.1722ZM54.7099 3.05152C54.3127 3.05152 53.977 2.90816 53.7031 2.62144C53.4291 2.32107 53.2921 1.95925 53.2921 1.536C53.2921 1.11275 53.4291 0.750934 53.7031 0.45056C53.9907 0.150187 54.3263 0 54.7099 0C55.1071 0 55.4359 0.150187 55.6962 0.45056C55.9701 0.750934 56.1071 1.11275 56.1071 1.536C56.1071 1.95925 55.977 2.32107 55.7167 2.62144C55.4565 2.90816 55.1208 3.05152 54.7099 3.05152Z" fill="#1F1915"/>
<path d="M43.843 14.1736C44.2403 14.1736 44.5211 14.0917 44.6855 13.9279C44.8499 13.7504 44.9526 13.5046 44.9937 13.1906C45.0348 12.8766 45.0553 12.5216 45.0553 12.1256V8.27541C45.0553 8.02965 45.0622 7.77023 45.0759 7.49717C45.0896 7.2241 45.1101 6.94421 45.1375 6.65749C44.9047 6.67114 44.6512 6.68479 44.3773 6.69845C44.1033 6.69845 43.8773 6.70527 43.6992 6.71893V5.40821H44.4595C45.0074 5.40821 45.4663 5.34677 45.8361 5.22389C46.206 5.08735 46.4663 4.95082 46.6169 4.81429H47.4799C47.5073 4.97813 47.5279 5.23754 47.5416 5.59253C47.5553 5.94751 47.5621 6.3025 47.5621 6.65749C47.8772 6.24789 48.2059 5.89973 48.5484 5.61301C48.8908 5.31263 49.2401 5.08735 49.5963 4.93717C49.9662 4.77333 50.3429 4.69141 50.7264 4.69141C51.1647 4.69141 51.5483 4.81429 51.8771 5.06005C52.2195 5.30581 52.3907 5.70175 52.3907 6.24789C52.3907 6.42538 52.3428 6.61653 52.2469 6.82133C52.1647 7.02613 52.0277 7.19679 51.836 7.33333C51.6579 7.46986 51.4113 7.53813 51.0963 7.53813C50.8086 7.53813 50.5346 7.44938 50.2744 7.27189C50.0278 7.08074 49.8977 6.78037 49.884 6.37077C49.5963 6.35711 49.2949 6.45951 48.9799 6.67797C48.6785 6.89642 48.4046 7.16266 48.158 7.47669C47.9114 7.79071 47.7196 8.11157 47.5827 8.43925L47.6032 12.3304C47.6032 12.5489 47.5964 12.8151 47.5827 13.1292C47.569 13.4295 47.5484 13.7231 47.521 14.0098C47.7402 13.9825 47.9731 13.9688 48.2196 13.9688C48.4662 13.9552 48.6717 13.9484 48.8361 13.9484V15.2591H43.843V14.1736Z" fill="#1F1915"/>
<path d="M38.7031 15.5868C37.7168 15.5868 36.8401 15.3683 36.073 14.9314C35.3059 14.4808 34.7101 13.8528 34.2854 13.0472C33.8608 12.228 33.6484 11.2655 33.6484 10.1596C33.6484 9.20383 33.8608 8.30954 34.2854 7.47669C34.7101 6.64383 35.3059 5.97482 36.073 5.46965C36.8538 4.95082 37.7579 4.69141 38.7853 4.69141C39.3606 4.69141 39.9154 4.77333 40.4496 4.93717C40.9838 5.10101 41.4633 5.37407 41.8879 5.75637C42.3126 6.13866 42.6482 6.64383 42.8947 7.27189C43.155 7.89994 43.2783 8.66453 43.2646 9.56565L36.3607 9.68853C36.3607 10.535 36.4566 11.286 36.6483 11.9413C36.8538 12.583 37.1826 13.095 37.6346 13.4773C38.0867 13.846 38.6825 14.0303 39.4222 14.0303C39.751 14.0303 40.1003 13.9757 40.4702 13.8664C40.8537 13.7436 41.2304 13.5661 41.6003 13.334C41.9701 13.0882 42.2989 12.7878 42.5865 12.4328L43.3673 13.1496C42.9153 13.805 42.4153 14.3102 41.8674 14.6652C41.3194 15.0202 40.7715 15.2591 40.2236 15.382C39.6757 15.5185 39.1688 15.5868 38.7031 15.5868ZM36.4634 8.45973H40.7373C40.7236 7.91359 40.6414 7.45621 40.4907 7.08757C40.3537 6.70527 40.1482 6.41855 39.8743 6.22741C39.6003 6.02261 39.2647 5.92021 38.8675 5.92021C38.1962 5.92021 37.6552 6.14549 37.2442 6.59605C36.847 7.03295 36.5867 7.65418 36.4634 8.45973Z" fill="#1F1915"/>
<path d="M22.2952 20.4815V19.396C22.6924 19.396 22.9732 19.3073 23.1376 19.1298C23.3157 18.966 23.4253 18.727 23.4664 18.413C23.5075 18.099 23.528 17.744 23.528 17.348L23.5485 8.27541C23.5485 8.02965 23.5485 7.77023 23.5485 7.49717C23.5622 7.2241 23.5896 6.94421 23.6307 6.65749C23.3979 6.67114 23.1376 6.68479 22.8499 6.69845C22.576 6.7121 22.35 6.72575 22.1719 6.73941V5.40821C22.802 5.40821 23.3088 5.3809 23.6924 5.32629C24.0896 5.25802 24.391 5.1761 24.5965 5.08053C24.8156 4.98495 24.9732 4.89621 25.069 4.81429H25.9526C25.98 4.95082 26.0005 5.11466 26.0142 5.30581C26.0279 5.49695 26.0416 5.67445 26.0553 5.83829C26.5074 5.44234 26.9868 5.15562 27.4936 4.97813C28.0005 4.78698 28.4868 4.69141 28.9525 4.69141C29.7744 4.69141 30.5072 4.90303 31.1511 5.32629C31.7949 5.73589 32.3017 6.32981 32.6716 7.10805C33.0414 7.87263 33.2263 8.78058 33.2263 9.83189C33.2263 10.9515 33.0003 11.9482 32.5483 12.822C32.1099 13.6821 31.5072 14.358 30.7401 14.8495C29.973 15.341 29.0895 15.5868 28.0895 15.5868C27.6786 15.5868 27.3087 15.539 26.98 15.4434C26.6512 15.3615 26.343 15.2523 26.0553 15.1157V17.5528C26.0553 17.7713 26.0485 18.0307 26.0348 18.3311C26.0348 18.6451 26.0142 18.9455 25.9731 19.2322C26.1923 19.2049 26.4252 19.1844 26.6717 19.1708C26.9183 19.1708 27.1238 19.1708 27.2882 19.1708V20.4815H22.2952ZM27.8635 14.2965C28.4936 14.2829 29.0004 14.0917 29.384 13.7231C29.7812 13.3408 30.0689 12.8356 30.247 12.2076C30.4251 11.5795 30.5141 10.8968 30.5141 10.1596C30.5141 9.49055 30.4251 8.85567 30.247 8.25493C30.0826 7.65418 29.8155 7.16949 29.4456 6.80085C29.0758 6.43221 28.5826 6.24789 27.9662 6.24789C27.5827 6.26154 27.2197 6.35711 26.8772 6.53461C26.5485 6.7121 26.2745 6.94421 26.0553 7.23093C26.0553 7.5313 26.0553 7.8385 26.0553 8.15253C26.0553 8.46655 26.0553 8.80106 26.0553 9.15605C26.0553 9.51103 26.0553 9.91381 26.0553 10.3644C26.0553 10.8013 26.0553 11.2996 26.0553 11.8594C26.0553 12.4192 26.0553 13.0609 26.0553 13.7845C26.2745 13.9347 26.5416 14.0576 26.8567 14.1532C27.1717 14.2487 27.5073 14.2965 27.8635 14.2965Z" fill="#1F1915"/>
<path d="M15.2425 15.585C14.448 15.585 13.7974 15.4348 13.2905 15.1344C12.7974 14.834 12.4344 14.3562 12.2015 13.7008C11.9687 13.0318 11.8522 12.158 11.8522 11.0794V8.2941C11.8522 8.06199 11.8591 7.80258 11.8728 7.51586C11.8865 7.22914 11.9002 6.94242 11.9139 6.6557C11.6947 6.66935 11.4481 6.68301 11.1742 6.69666C10.9002 6.69666 10.6742 6.70349 10.4961 6.71714V5.40642H10.8454C11.5988 5.40642 12.181 5.34498 12.5919 5.2221C13.0166 5.08557 13.3042 4.94903 13.4549 4.8125H14.4001V11.0794C14.4001 12.0624 14.5302 12.7929 14.7905 13.2707C15.0645 13.7486 15.5028 13.9875 16.1055 13.9875C16.5165 13.9739 16.9206 13.851 17.3178 13.6189C17.7288 13.3868 18.0575 13.1137 18.3041 12.7997V8.37602C18.3041 8.10295 18.3109 7.82306 18.3246 7.53634C18.3383 7.23597 18.3589 6.94242 18.3863 6.6557C18.1671 6.66935 17.9137 6.68301 17.626 6.69666C17.3521 6.69666 17.126 6.70349 16.948 6.71714V5.40642H17.4822C18.1123 5.40642 18.6328 5.33815 19.0438 5.20162C19.4684 5.06509 19.7492 4.93538 19.8862 4.8125H20.8314V12.1648C20.8314 12.356 20.8246 12.6359 20.8109 13.0045C20.7972 13.3731 20.7766 13.7076 20.7492 14.008C20.9821 13.9807 21.2287 13.9671 21.4889 13.9671C21.7492 13.9534 21.9615 13.9398 22.1259 13.9261V15.2573H18.5506C18.5233 15.0662 18.4959 14.875 18.4685 14.6839C18.4548 14.4927 18.4411 14.3084 18.4274 14.1309C18.0027 14.5132 17.5233 14.8545 16.9891 15.1549C16.4685 15.4416 15.8863 15.585 15.2425 15.585Z" fill="#1F1915"/>
<path d="M8.4798 5.42703C8.38391 4.7034 8.18528 4.07535 7.88392 3.54287C7.58256 2.99674 7.17846 2.58031 6.67163 2.29359C6.17849 1.99322 5.58262 1.84303 4.88401 1.84303C4.2128 1.84303 3.65117 2.03418 3.19913 2.41647C2.76079 2.79876 2.54161 3.2698 2.54161 3.82959C2.54161 4.2938 2.67175 4.69658 2.93201 5.03791C3.20598 5.37924 3.59638 5.69327 4.10321 5.97999C4.61005 6.25306 5.21277 6.53978 5.91138 6.84015C6.43191 7.0586 6.95929 7.30436 7.49352 7.57743C8.02775 7.83684 8.52089 8.15087 8.97293 8.51951C9.42497 8.88815 9.78798 9.31823 10.0619 9.80975C10.3496 10.2876 10.4934 10.8611 10.4934 11.5301C10.4934 12.322 10.2811 13.0251 9.85647 13.6395C9.44552 14.2539 8.8565 14.7318 8.0894 15.0731C7.3223 15.4144 6.41821 15.5851 5.37715 15.5851C4.80182 15.5851 4.19225 15.4964 3.54843 15.3189C2.90462 15.155 2.31559 14.9024 1.78136 14.5611L1.84301 15.4417H0.445787L0.404692 10.7928H1.57589C1.72657 11.9533 2.15806 12.834 2.87037 13.4347C3.58268 14.0218 4.43882 14.3153 5.43879 14.3153C5.94562 14.3153 6.39767 14.2266 6.79491 14.0491C7.19216 13.858 7.50037 13.6054 7.71954 13.2913C7.95241 12.9637 8.06885 12.595 8.06885 12.1854C8.06885 11.6529 7.90447 11.216 7.57571 10.8747C7.24695 10.5334 6.82916 10.2398 6.32232 9.99407C5.81549 9.74831 5.28811 9.50938 4.74018 9.27727C4.12376 9.01786 3.54159 8.74479 2.99366 8.45807C2.44573 8.1577 1.95944 7.82319 1.5348 7.45455C1.12385 7.07226 0.795091 6.63535 0.548523 6.14383C0.315654 5.65231 0.199219 5.07204 0.199219 4.40303C0.199219 4.00708 0.274559 3.59066 0.425239 3.15375C0.57592 2.70319 0.822488 2.28676 1.16494 1.90447C1.5211 1.52218 1.99369 1.20815 2.58271 0.96239C3.17173 0.71663 3.90459 0.59375 4.78127 0.59375C5.3292 0.59375 5.92508 0.67567 6.56889 0.839509C7.22641 0.989696 7.80173 1.24228 8.29487 1.59727L8.21268 0.737109H9.63045V5.42703H8.4798Z" fill="#1F1915"/>
</svg>
