<svg width="106" height="29" viewBox="0 0 106 29" fill="none" xmlns="http://www.w3.org/2000/svg">
<g clip-path="url(#clip0_16067_7944)">
<path fill-rule="evenodd" clip-rule="evenodd" d="M68.6209 8.68923V23.5905H72.1195V11.4063H74.2538V19.6912C74.2474 20.6226 74.4471 21.3987 74.853 22.0195C75.2654 22.6404 75.8227 23.0996 76.525 23.3971C77.2273 23.6882 78.0166 23.8208 78.8928 23.7949C79.389 23.782 79.8078 23.7367 80.1492 23.6591C80.4972 23.5815 80.7646 23.5103 80.9514 23.4456L80.3619 20.7002C80.2652 20.726 80.1235 20.7551 79.9366 20.7875C79.7562 20.8198 79.5565 20.836 79.3374 20.836C79.0475 20.836 78.7833 20.7907 78.5449 20.7002C78.3065 20.6096 78.1132 20.4415 77.965 20.1957C77.8233 19.9435 77.7524 19.5813 77.7524 19.1091V11.4063H80.6808V8.68993H77.7524V5.11984H74.2538V8.68993H72.1195V8.68923H68.6209ZM68.9495 6.02136C69.349 6.39001 69.8258 6.57434 70.3799 6.57434C70.9404 6.57434 71.4172 6.39001 71.8102 6.02136C72.2097 5.64624 72.4094 5.19675 72.4094 4.67288C72.4094 4.14254 72.2097 3.69305 71.8102 3.32439C71.4172 2.94928 70.9404 2.76172 70.3799 2.76172C69.8258 2.76172 69.349 2.94928 68.9495 3.32439C68.55 3.69305 68.3503 4.14254 68.3503 4.67288C68.3503 5.19675 68.55 5.64624 68.9495 6.02136ZM84.9767 14.8579V23.5891H81.4781V3.72078H84.8994V11.2199H85.0734C85.4213 10.3791 85.9593 9.7162 86.6874 9.23113C87.4219 8.7396 88.3561 8.49383 89.4901 8.49383C90.521 8.49383 91.4198 8.71049 92.1865 9.14382C92.9533 9.57715 93.546 10.211 93.9648 11.0453C94.3901 11.8796 94.6027 12.8982 94.6027 14.1012V23.5891H91.1041V14.6445C91.1041 13.642 90.8464 12.8627 90.3309 12.3065C89.8219 11.7438 89.1067 11.4624 88.1854 11.4624C87.5668 11.4624 87.0127 11.5983 86.5231 11.8699C86.0398 12.1351 85.6597 12.5199 85.3826 13.0243C85.112 13.5288 84.9767 14.14 84.9767 14.8579ZM67.473 3.72078V23.5891H63.9744V3.72078H67.473ZM52.5715 22.9213C53.6346 23.5616 54.891 23.8818 56.3407 23.8818C57.7904 23.8818 59.0468 23.5616 60.1099 22.9213C61.173 22.281 61.9945 21.3853 62.5744 20.2341C63.1607 19.0828 63.4538 17.7376 63.4538 16.1983C63.4538 14.659 63.1607 13.3106 62.5744 12.1529C61.9945 10.9952 61.173 10.0962 60.1099 9.4559C59.0468 8.81561 57.7904 8.49547 56.3407 8.49547C54.891 8.49547 53.6346 8.81561 52.5715 9.4559C51.5084 10.0962 50.6836 10.9952 50.0973 12.1529C49.5174 13.3106 49.2275 14.659 49.2275 16.1983C49.2275 17.7376 49.5174 19.0828 50.0973 20.2341C50.6836 21.3853 51.5084 22.281 52.5715 22.9213ZM58.3316 20.4184C57.8033 20.8517 57.1461 21.0684 56.36 21.0684C55.5546 21.0684 54.8845 20.8517 54.3498 20.4184C53.8214 19.9786 53.4252 19.3901 53.161 18.6528C52.9033 17.9155 52.7744 17.0941 52.7744 16.1886C52.7744 15.2767 52.9033 14.4521 53.161 13.7148C53.4252 12.971 53.8214 12.3792 54.3498 11.9394C54.8845 11.4996 55.5546 11.2797 56.36 11.2797C57.1461 11.2797 57.8033 11.4996 58.3316 11.9394C58.8599 12.3792 59.2529 12.971 59.5107 13.7148C59.7748 14.4521 59.9069 15.2767 59.9069 16.1886C59.9069 17.0941 59.7748 17.9155 59.5107 18.6528C59.2529 19.3901 58.8599 19.9786 58.3316 20.4184ZM39.2305 14.8595V23.5907H35.7319V8.68949H39.0758V11.2215H39.2498C39.5913 10.3872 40.1357 9.7243 40.8831 9.23277C41.637 8.74124 42.568 8.49547 43.6762 8.49547C44.7007 8.49547 45.593 8.71536 46.3533 9.15516C47.12 9.59495 47.7128 10.232 48.1316 11.0663C48.5568 11.9006 48.7662 12.9128 48.7598 14.1028V23.5907H45.2612V14.6461C45.2612 13.6501 45.0035 12.8708 44.488 12.3081C43.979 11.7454 43.2735 11.4641 42.3715 11.4641C41.7594 11.4641 41.2149 11.5999 40.7382 11.8715C40.2678 12.1367 39.8973 12.5215 39.6267 13.026C39.3626 13.5305 39.2305 14.1416 39.2305 14.8595ZM24.329 22.9213C25.3921 23.5616 26.6485 23.8818 28.0982 23.8818C29.5479 23.8818 30.8043 23.5616 31.8674 22.9213C32.9305 22.281 33.752 21.3853 34.3319 20.2341C34.9182 19.0828 35.2113 17.7376 35.2113 16.1983C35.2113 14.659 34.9182 13.3106 34.3319 12.1529C33.752 10.9952 32.9305 10.0962 31.8674 9.4559C30.8043 8.81561 29.5479 8.49547 28.0982 8.49547C26.6485 8.49547 25.3921 8.81561 24.329 9.4559C23.2658 10.0962 22.4411 10.9952 21.8548 12.1529C21.2749 13.3106 20.985 14.659 20.985 16.1983C20.985 17.7376 21.2749 19.0828 21.8548 20.2341C22.4411 21.3853 23.2658 22.281 24.329 22.9213ZM30.0891 20.4184C29.5608 20.8517 28.9036 21.0684 28.1175 21.0684C27.3121 21.0684 26.642 20.8517 26.1073 20.4184C25.5789 19.9786 25.1827 19.3901 24.9185 18.6528C24.6608 17.9155 24.5319 17.0941 24.5319 16.1886C24.5319 15.2767 24.6608 14.4521 24.9185 13.7148C25.1827 12.971 25.5789 12.3792 26.1073 11.9394C26.642 11.4996 27.3121 11.2797 28.1175 11.2797C28.9036 11.2797 29.5608 11.4996 30.0891 11.9394C30.6174 12.3792 31.0104 12.971 31.2682 13.7148C31.5323 14.4521 31.6644 15.2767 31.6644 16.1886C31.6644 17.0941 31.5323 17.9155 31.2682 18.6528C31.0104 19.3901 30.6174 19.9786 30.0891 20.4184ZM-0.4375 3.72078H3.95025L9.82635 18.1175H10.0583L15.9344 3.72078H20.3221V23.5891H16.8815V9.93933H16.6979L11.2277 23.5309H8.65693L3.18674 9.91022H3.00311V23.5891H-0.4375V3.72078ZM100.055 3.93797L100.07 8.33093H101.154V6.68357L101.14 5.31781H101.168L102.365 8.33093H103.238L104.434 5.31781H104.477L104.448 6.68357V8.33093H105.561V3.93797H103.984L102.829 6.90885H102.787L101.618 3.93797H100.055ZM96.8733 4.93765V8.33093H98.042V4.93765H99.4077V3.93797H95.5498V4.93765H96.8733Z" fill="#111111"/>
</g>
<defs>
<clipPath id="clip0_16067_7944">
<rect width="105.6" height="28.16" fill="white" transform="translate(0 0.121094)"/>
</clipPath>
</defs>
</svg>
