<svg width="135" height="29" viewBox="0 0 135 29" fill="none" xmlns="http://www.w3.org/2000/svg">
<g clip-path="url(#clip0_16067_7952)">
<path d="M40.9421 19.1481C40.9421 19.9929 41.3856 20.3731 42.3994 20.3731H43.0963V21.2812H36.6336V20.3731H37.3306C38.3443 20.3731 38.7878 19.9929 38.7878 19.1481V8.60925C38.7878 7.76445 38.3443 7.38429 37.3306 7.38429H36.6336V6.49725H43.0963V7.38429H42.3994C41.3856 7.38429 40.9421 7.76445 40.9421 8.60925V13.0867H48.0806V8.60925C48.0806 7.76445 47.6371 7.38429 46.6234 7.38429H45.9264V6.49725H52.3891V7.38429H51.6922C50.6784 7.38429 50.2349 7.76445 50.2349 8.60925V19.1481C50.2349 19.9929 50.6784 20.3731 51.6922 20.3731H52.3891V21.2812H45.9264V20.3731H46.6234C47.6371 20.3731 48.0806 19.9929 48.0806 19.1481V14.1216H40.9421V19.1481ZM56.2681 18.2611C56.2681 19.5283 56.8806 20.183 57.9999 20.183C58.9081 20.183 60.1331 19.6128 61.2102 18.3667V13.6147C61.2102 12.1997 60.999 12.0941 59.3939 12.2208V11.4182C61.0623 11.2493 61.6326 11.0592 62.2873 10.5945H63.1743V19.2537C63.1743 20.0352 63.5334 20.4787 64.167 20.4787H64.8428V21.2812H61.2102V19.5072C59.8374 21.0067 58.2956 21.6192 57.0918 21.6192C55.3811 21.6192 54.3039 20.5632 54.3039 18.5568V13.6147C54.3039 12.1997 54.0927 12.0941 52.4876 12.2208V11.4182C54.1561 11.2493 54.7263 11.0592 55.3811 10.5945H56.2681V18.2611ZM69.0432 19.2537C69.0432 20.0352 69.4023 20.4787 70.0359 20.4787H70.6695V21.2812H65.4106V20.4787H66.0864C66.72 20.4787 67.0791 20.0352 67.0791 19.2537V13.6147C67.0791 12.1997 66.8679 12.0941 65.2627 12.2208V11.4182C66.9312 11.2493 67.5015 11.0592 68.1562 10.5945H69.0432V12.3053C70.3527 10.9536 71.5987 10.3833 72.8026 10.3833C74.2176 10.3833 75.1891 11.0803 75.5059 12.432C76.8576 10.9958 78.1037 10.3833 79.3709 10.3833C81.0816 10.3833 82.1587 11.4393 82.1587 13.4457V19.2537C82.1587 20.0352 82.5178 20.4787 83.1514 20.4787H83.8272V21.2812H78.5895V20.4787H79.2019C79.8355 20.4787 80.1946 20.0352 80.1946 19.2537V13.7414C80.1946 12.4742 79.5821 11.7984 78.4627 11.7984C77.5968 11.7984 76.6253 12.3264 75.6115 13.4246V13.4457V19.2537C75.6115 20.0563 75.9283 20.4787 76.6042 20.4787H77.1744V21.2812H72.0845V20.4787H72.6547C73.3095 20.4787 73.6474 20.0563 73.6474 19.2537V13.7414C73.6474 12.4742 73.0138 11.7984 71.9155 11.7984C71.0285 11.7984 70.057 12.3264 69.0432 13.4246V19.2537ZM88.994 10.3833C91.3172 10.3833 92.8801 11.5027 92.8801 13.6569V19.4861C92.8801 20.1408 93.1336 20.4998 93.5771 20.4998C93.8516 20.4998 94.1051 20.4576 94.5486 20.2675L94.7387 21.0489C93.5348 21.5136 93.0913 21.5769 92.5422 21.5769C91.4228 21.5769 90.916 20.88 90.916 19.824V19.8029C90.05 20.9222 88.8673 21.598 87.4523 21.598C85.5726 21.598 84.3688 20.4998 84.3688 18.5357C84.3688 15.9379 87.4523 14.6496 90.916 14.6285V13.7414C90.916 12.1574 90.1134 11.3337 88.804 11.3337C87.1988 11.3337 86.354 12.2419 85.6782 13.6781H84.939L85.1502 11.2493C86.3752 10.679 87.7691 10.3833 88.994 10.3833ZM86.5441 18.3456C86.5441 19.5283 87.22 20.2464 88.2126 20.2464C89.3108 20.2464 90.2612 19.5494 90.916 18.3667V15.5577C88.2548 15.5789 86.5441 16.3603 86.5441 18.3456ZM98.5592 19.2537C98.5592 20.0352 98.9183 20.4787 99.5519 20.4787H100.185V21.2812H94.9266V20.4787H95.6024C96.236 20.4787 96.5951 20.0352 96.5951 19.2537V13.6147C96.5951 12.1997 96.3839 12.0941 94.7788 12.2208V11.4182C96.4472 11.2493 97.0175 11.0592 97.6722 10.5945H98.5592V12.3686C99.9109 10.9747 101.368 10.3833 102.551 10.3833C104.262 10.3833 105.339 11.4393 105.339 13.4457V19.2537C105.339 20.0352 105.698 20.4787 106.331 20.4787H107.007V21.2812H101.748V20.4787H102.382C103.016 20.4787 103.375 20.0352 103.375 19.2537V13.7414C103.375 12.4742 102.762 11.7984 101.643 11.7984C100.756 11.7984 99.6152 12.3475 98.5592 13.4669V19.2537ZM107.853 20.3097C107.853 19.5494 108.275 19.127 109.014 19.127H109.162C109.922 19.127 110.345 19.5494 110.345 20.3097V20.4576C110.345 21.1968 109.922 21.6192 109.162 21.6192H109.014C108.275 21.6192 107.853 21.1968 107.853 20.4576V20.3097ZM115.816 19.1481C115.816 19.9929 116.259 20.3731 117.273 20.3731H117.97V21.2812H111.507V20.3731H112.204C113.218 20.3731 113.662 19.9929 113.662 19.1481V8.60925C113.662 7.76445 113.218 7.38429 112.204 7.38429H111.507V6.49725H117.97V7.38429H117.273C116.259 7.38429 115.816 7.76445 115.816 8.60925V19.1481ZM121.903 18.7257C121.903 19.8662 122.473 20.3731 123.74 20.3731H124.437V21.2812H118.397V20.3731H119.094C120.108 20.3731 120.551 19.9929 120.551 19.1481V8.60925C120.551 7.76445 120.108 7.38429 119.094 7.38429H118.397V6.49725H122.642L130.203 17.2685V9.03165C130.203 7.89117 129.633 7.38429 128.323 7.38429H127.626V6.49725H133.709V7.38429H133.012C131.998 7.38429 131.555 7.76445 131.555 8.60925V21.2812H130.266L121.903 9.26397V18.7257Z" fill="#1F1915"/>
<path d="M14.3429 8.79461C14.3429 5.70828 16.8749 3.19781 20.0087 3.19781H20.2579C23.5294 3.19781 26.1729 5.8186 26.1729 9.04101V9.28741C26.1729 12.3737 23.641 14.8842 20.5071 14.8842C16.8967 14.8842 13.9614 17.7793 13.9614 21.361C13.9614 24.4473 11.4294 26.9578 8.2956 26.9578H8.04638C4.77491 26.9578 2.13141 24.337 2.13141 21.1146V20.8682C2.13141 17.7819 4.66333 15.2714 7.79717 15.2714C11.4076 15.2714 14.3429 12.3763 14.3429 8.79461Z" stroke="#1F1915" stroke-width="0.88" stroke-linejoin="round"/>
<path d="M1.24078 7.42291C1.24078 4.60874 3.54955 2.31891 6.40811 2.31891C9.26668 2.31891 11.5754 4.60874 11.5754 7.42291C11.5754 10.2371 9.26668 12.5269 6.40811 12.5269C3.54955 12.5269 1.24078 10.2371 1.24078 7.42291Z" stroke="#1F1915" stroke-width="0.88" stroke-linejoin="round"/>
</g>
<defs>
<clipPath id="clip0_16067_7952">
<rect width="133.76" height="28.16" fill="white" transform="translate(0.800781 0.121094)"/>
</clipPath>
</defs>
</svg>
