<svg width="96" height="32" viewBox="0 0 96 32" fill="none" xmlns="http://www.w3.org/2000/svg">
<g clip-path="url(#clip0_16067_7947)">
<path d="M80.6257 25.1185C79.0283 25.1185 77.6151 24.7652 76.3863 24.0586C75.1729 23.3521 74.2206 22.3767 73.5294 21.1325C72.8535 19.873 72.5156 18.4215 72.5156 16.778C72.5156 15.1345 72.8535 13.6906 73.5294 12.4465C74.2206 11.1869 75.1729 10.2039 76.3863 9.49734C77.6151 8.79078 79.0283 8.4375 80.6257 8.4375C82.2385 8.4375 83.6516 8.79078 84.8651 9.49734C86.0785 10.2039 87.0231 11.1869 87.699 12.4465C88.3902 13.6906 88.7358 15.1345 88.7358 16.778C88.7358 18.4215 88.3902 19.873 87.699 21.1325C87.0231 22.3767 86.0785 23.3521 84.8651 24.0586C83.6516 24.7652 82.2385 25.1185 80.6257 25.1185ZM80.6487 22.2154C81.6318 22.2154 82.4766 22.0004 83.1832 21.5703C83.9051 21.1249 84.4657 20.4951 84.8651 19.681C85.2644 18.8669 85.4641 17.8993 85.4641 16.778C85.4641 15.6567 85.2644 14.689 84.8651 13.8749C84.4657 13.0609 83.9051 12.4388 83.1832 12.0087C82.4766 11.5633 81.6318 11.3405 80.6487 11.3405C79.6657 11.3405 78.8132 11.5633 78.0913 12.0087C77.3694 12.4388 76.8087 13.0609 76.4094 13.8749C76.01 14.689 75.8103 15.6567 75.8103 16.778C75.8103 17.8993 76.01 18.8669 76.4094 19.681C76.8087 20.4951 77.3694 21.1249 78.0913 21.5703C78.8132 22.0004 79.6657 22.2154 80.6487 22.2154Z" fill="#1F1915"/>
<path d="M64.591 25.1185C62.9629 25.1185 61.5574 24.7729 60.3747 24.0817C59.2073 23.3751 58.3088 22.3997 57.679 21.1556C57.0493 19.8961 56.7344 18.4445 56.7344 16.801C56.7344 15.1575 57.0493 13.706 57.679 12.4465C58.3088 11.1869 59.2073 10.2039 60.3747 9.49734C61.5574 8.79078 62.9629 8.4375 64.591 8.4375C66.5571 8.4375 68.1699 8.92902 69.4294 9.91206C70.6889 10.8951 71.4646 12.2775 71.7565 14.0593H68.2083C68.024 13.1991 67.6169 12.5386 66.9872 12.0778C66.3728 11.6017 65.5587 11.3636 64.5449 11.3636C63.5926 11.3636 62.7785 11.5863 62.1027 12.0317C61.4269 12.4618 60.9046 13.0839 60.536 13.898C60.1827 14.7121 60.0061 15.6797 60.0061 16.801C60.0061 17.9223 60.1827 18.89 60.536 19.7041C60.9046 20.5028 61.4269 21.1249 62.1027 21.5703C62.7785 22.0004 63.5926 22.2154 64.5449 22.2154C65.5587 22.2154 66.3728 22.0004 66.9872 21.5703C67.6016 21.1249 68.0009 20.4951 68.1853 19.681H71.7334C71.4416 21.386 70.6659 22.7223 69.4064 23.69C68.1622 24.6423 66.5571 25.1185 64.591 25.1185Z" fill="#1F1915"/>
<path d="M41.7031 24.8428V8.71484H44.9287L52.2324 19.6588V8.71484H55.458V24.8428H52.2324L44.9287 13.9449V24.8428H41.7031Z" fill="#1F1915"/>
<path d="M25.6016 24.8428L31.4768 8.71484H35.1401L41.0384 24.8428H37.6284L32.6518 10.4659H33.9651L28.9884 24.8428H25.6016ZM28.3203 21.2256L29.1728 18.7142H37.4672L38.3196 21.2256H28.3203Z" fill="#1F1915"/>
<path d="M12.3633 24.8428V8.71484H19.2062C20.5118 8.71484 21.587 8.93756 22.4318 9.383C23.2919 9.81308 23.9294 10.4121 24.3441 11.1801C24.7742 11.9328 24.9892 12.7852 24.9892 13.7376C24.9892 14.4748 24.8279 15.1584 24.5054 15.7881C24.1828 16.4025 23.7527 16.9324 23.2151 17.3779C23.7988 17.7772 24.2442 18.2918 24.5514 18.9216C24.874 19.5513 25.0506 20.2732 25.0814 21.0873L25.2657 24.8428H22.1092L21.8558 21.0873C21.825 20.5497 21.7175 20.112 21.5332 19.774C21.3642 19.4208 21.0954 19.1596 20.7268 18.9907C20.3582 18.8217 19.859 18.7372 19.2292 18.7372H15.5889V24.8428H12.3633ZM15.5889 16.1337H18.9988C19.9511 16.1337 20.6423 15.9187 21.0724 15.4886C21.5025 15.0585 21.7175 14.4748 21.7175 13.7376C21.7175 12.9849 21.5025 12.4012 21.0724 11.9865C20.6423 11.5564 19.9511 11.3414 18.9988 11.3414H15.5889V16.1337Z" fill="#1F1915"/>
<path d="M0.761719 24.8428V8.71484H11.3371V11.3184H3.98732V15.4886H9.86252V18.023H3.98732V24.8428H0.761719Z" fill="#1F1915"/>
<path d="M92.3186 12.7539C91.8655 12.7539 91.4585 12.654 91.0975 12.4543C90.7442 12.247 90.4639 11.9628 90.2566 11.6019C90.0569 11.2409 89.957 10.8339 89.957 10.3807C89.957 9.91225 90.0569 9.50137 90.2566 9.14809C90.4639 8.79481 90.7442 8.51449 91.0975 8.30713C91.4585 8.09977 91.8655 7.99609 92.3186 7.99609C92.7871 7.99609 93.198 8.09977 93.5513 8.30713C93.9046 8.51449 94.181 8.79481 94.3807 9.14809C94.5804 9.50137 94.6802 9.91225 94.6802 10.3807C94.6802 10.8339 94.5804 11.2409 94.3807 11.6019C94.181 11.9628 93.9046 12.247 93.5513 12.4543C93.198 12.654 92.7871 12.7539 92.3186 12.7539ZM92.3186 12.27C92.8793 12.27 93.3247 12.0934 93.655 11.7401C93.9929 11.3868 94.1618 10.9337 94.1618 10.3807C94.1618 9.82009 93.9929 9.36697 93.655 9.02137C93.3247 8.66809 92.8793 8.49145 92.3186 8.49145C91.758 8.49145 91.3087 8.66809 90.9708 9.02137C90.6406 9.36697 90.4754 9.82009 90.4754 10.3807C90.4754 10.9337 90.6406 11.3868 90.9708 11.7401C91.3087 12.0934 91.758 12.27 92.3186 12.27ZM91.3625 11.5903V9.12505H92.526C92.7794 9.12505 92.983 9.19417 93.1366 9.33241C93.2902 9.47065 93.367 9.65497 93.367 9.88537C93.367 10.1388 93.2786 10.3385 93.102 10.4844C93.1942 10.5459 93.2556 10.6265 93.2863 10.7263C93.3247 10.8262 93.3478 10.9337 93.3554 11.0489L93.4015 11.5903H92.814L92.7679 11.1871C92.7449 10.9721 92.7103 10.83 92.6642 10.7609C92.6258 10.6918 92.526 10.6572 92.3647 10.6572H91.9961V11.5903H91.3625ZM91.9961 10.1849H92.4454C92.5298 10.1849 92.599 10.1657 92.6527 10.1273C92.7142 10.0812 92.7449 10.0121 92.7449 9.91993C92.7449 9.82777 92.7142 9.76249 92.6527 9.72409C92.599 9.68569 92.5298 9.66649 92.4454 9.66649H91.9961V10.1849Z" fill="#1F1915"/>
</g>
<defs>
<clipPath id="clip0_16067_7947">
<rect width="95.04" height="30.72" fill="white" transform="translate(0.160156 0.839844)"/>
</clipPath>
</defs>
</svg>
