<svg width="115" height="25" viewBox="0 0 115 25" fill="none" xmlns="http://www.w3.org/2000/svg">
<path d="M32.1411 7.02422C32.0521 6.19058 31.6766 5.54149 31.0148 5.07695C30.3593 4.6124 29.5066 4.38013 28.4566 4.38013C27.7184 4.38013 27.0852 4.49149 26.5571 4.71422C26.0289 4.93695 25.6248 5.23922 25.3448 5.62104C25.0648 6.00286 24.9216 6.43876 24.9152 6.92876C24.9152 7.33604 25.0075 7.68922 25.1921 7.98831C25.383 8.2874 25.6407 8.54195 25.9652 8.75195C26.2898 8.95558 26.6493 9.1274 27.0439 9.2674C27.4384 9.4074 27.8361 9.52513 28.2371 9.62058L30.0698 10.0788C30.808 10.2506 31.5175 10.4829 32.1984 10.7756C32.8857 11.0683 33.4998 11.4374 34.0407 11.8829C34.588 12.3283 35.0207 12.866 35.3389 13.496C35.6571 14.126 35.8161 14.8642 35.8161 15.7106C35.8161 16.856 35.5234 17.8647 34.938 18.7365C34.3525 19.6019 33.5061 20.2797 32.3989 20.7697C31.298 21.2533 29.9648 21.4951 28.3993 21.4951C26.8784 21.4951 25.558 21.2597 24.438 20.7888C23.3243 20.3179 22.4525 19.6306 21.8225 18.7269C21.1989 17.8233 20.8616 16.7224 20.8107 15.4242H24.2948C24.3457 16.1051 24.5557 16.6715 24.9248 17.1233C25.2939 17.5751 25.7743 17.9124 26.3661 18.1351C26.9643 18.3579 27.6325 18.4692 28.3707 18.4692C29.1407 18.4692 29.8152 18.3547 30.3943 18.1256C30.9798 17.8901 31.438 17.5656 31.7689 17.1519C32.0998 16.7319 32.2684 16.2419 32.2748 15.6819C32.2684 15.1729 32.1189 14.7529 31.8261 14.4219C31.5334 14.0847 31.123 13.8047 30.5948 13.5819C30.073 13.3529 29.4621 13.1492 28.7621 12.971L26.538 12.3983C24.928 11.9847 23.6552 11.3579 22.7198 10.5179C21.7907 9.67149 21.3261 8.54831 21.3261 7.14831C21.3261 5.99649 21.638 4.98785 22.2616 4.1224C22.8916 3.25695 23.7475 2.58558 24.8293 2.10831C25.9111 1.62467 27.1361 1.38286 28.5043 1.38286C29.8916 1.38286 31.1071 1.62467 32.1507 2.10831C33.2007 2.58558 34.0248 3.25058 34.623 4.10331C35.2211 4.94967 35.5298 5.92331 35.5489 7.02422H32.1411ZM44.5291 6.5374V9.21013H36.1005V6.5374H44.5291ZM38.1814 3.02467H41.6369V16.7892C41.6369 17.2538 41.7069 17.6101 41.8469 17.8583C41.9932 18.1001 42.1841 18.2656 42.4196 18.3547C42.655 18.4438 42.916 18.4883 43.2023 18.4883C43.4187 18.4883 43.616 18.4724 43.7941 18.4406C43.9787 18.4088 44.1187 18.3801 44.2141 18.3547L44.7964 21.056C44.6119 21.1197 44.3478 21.1897 44.0041 21.266C43.6669 21.3424 43.2532 21.3869 42.7632 21.3997C41.8978 21.4251 41.1182 21.2947 40.4246 21.0083C39.731 20.7156 39.1805 20.2638 38.7732 19.6529C38.3723 19.0419 38.175 18.2783 38.1814 17.3619V3.02467ZM45.8062 21.1992V6.5374H49.1567V8.98104H49.3094C49.5767 8.13467 50.0349 7.4824 50.684 7.02422C51.3394 6.55967 52.0871 6.3274 52.9271 6.3274C53.118 6.3274 53.3312 6.33695 53.5667 6.35604C53.8085 6.36876 54.009 6.39104 54.168 6.42285V9.60149C54.0217 9.55058 53.7894 9.50604 53.4712 9.46785C53.1594 9.42331 52.8571 9.40104 52.5644 9.40104C51.9344 9.40104 51.368 9.53786 50.8653 9.81149C50.369 10.0788 49.9776 10.451 49.6912 10.9283C49.4049 11.4056 49.2617 11.956 49.2617 12.5797V21.1992H45.8062ZM60.6426 21.4856C59.2108 21.4856 57.9699 21.1706 56.9199 20.5406C55.8699 19.9106 55.0554 19.0292 54.4763 17.8965C53.9035 16.7638 53.6172 15.4401 53.6172 13.9256C53.6172 12.411 53.9035 11.0842 54.4763 9.94513C55.0554 8.80604 55.8699 7.92149 56.9199 7.29149C57.9699 6.66149 59.2108 6.34649 60.6426 6.34649C62.0744 6.34649 63.3154 6.66149 64.3654 7.29149C65.4154 7.92149 66.2267 8.80604 66.7994 9.94513C67.3785 11.0842 67.6681 12.411 67.6681 13.9256C67.6681 15.4401 67.3785 16.7638 66.7994 17.8965C66.2267 19.0292 65.4154 19.9106 64.3654 20.5406C63.3154 21.1706 62.0744 21.4856 60.6426 21.4856ZM60.6617 18.7174C61.4381 18.7174 62.0872 18.5042 62.609 18.0779C63.1308 17.6451 63.519 17.066 63.7735 16.3406C64.0344 15.6151 64.1649 14.8069 64.1649 13.916C64.1649 13.0188 64.0344 12.2074 63.7735 11.4819C63.519 10.7501 63.1308 10.1679 62.609 9.73513C62.0872 9.3024 61.4381 9.08604 60.6617 9.08604C59.8663 9.08604 59.2044 9.3024 58.6763 9.73513C58.1544 10.1679 57.7631 10.7501 57.5022 11.4819C57.2476 12.2074 57.1204 13.0188 57.1204 13.916C57.1204 14.8069 57.2476 15.6151 57.5022 16.3406C57.7631 17.066 58.1544 17.6451 58.6763 18.0779C59.2044 18.5042 59.8663 18.7174 60.6617 18.7174ZM69.1409 21.1992V1.65013H72.5963V8.96195H72.7395C72.9177 8.60558 73.169 8.22695 73.4936 7.82604C73.8181 7.41876 74.2572 7.07195 74.8109 6.78558C75.3645 6.49286 76.0709 6.34649 76.9299 6.34649C78.0627 6.34649 79.084 6.63604 79.994 7.21513C80.9104 7.78786 81.6359 8.6374 82.1704 9.76376C82.7113 10.8838 82.9818 12.2583 82.9818 13.8874C82.9818 15.4974 82.7177 16.8656 82.1895 17.9919C81.6613 19.1183 80.9422 19.9774 80.0322 20.5692C79.1222 21.161 78.0913 21.4569 76.9395 21.4569C76.0995 21.4569 75.4027 21.3169 74.849 21.0369C74.2954 20.7569 73.8499 20.4197 73.5127 20.0251C73.1818 19.6242 72.924 19.2456 72.7395 18.8892H72.539V21.1992H69.1409ZM72.5295 13.8683C72.5295 14.8165 72.6631 15.6469 72.9304 16.3597C73.204 17.0724 73.5954 17.6292 74.1045 18.0301C74.6199 18.4247 75.2436 18.6219 75.9754 18.6219C76.739 18.6219 77.3786 18.4183 77.894 18.011C78.4095 17.5974 78.7977 17.0342 79.0586 16.3215C79.3259 15.6024 79.4595 14.7847 79.4595 13.8683C79.4595 12.9583 79.329 12.1501 79.0681 11.4438C78.8072 10.7374 78.419 10.1838 77.9036 9.78285C77.3881 9.38195 76.7454 9.18149 75.9754 9.18149C75.2372 9.18149 74.6104 9.37558 74.0949 9.76376C73.5795 10.1519 73.1881 10.696 72.9209 11.396C72.6599 12.096 72.5295 12.9201 72.5295 13.8683ZM90.7975 21.4856C89.3275 21.4856 88.0579 21.1801 86.9888 20.5692C85.9261 19.9519 85.1084 19.0801 84.5357 17.9538C83.9629 16.821 83.6766 15.4879 83.6766 13.9542C83.6766 12.446 83.9629 11.1224 84.5357 9.98331C85.1148 8.83786 85.9229 7.94695 86.9602 7.31058C87.9975 6.66786 89.2161 6.34649 90.6161 6.34649C91.5198 6.34649 92.3725 6.49286 93.1743 6.78558C93.9825 7.07195 94.6952 7.5174 95.3125 8.12195C95.9361 8.72649 96.4261 9.49649 96.7825 10.4319C97.1388 11.361 97.317 12.4683 97.317 13.7538V14.8133H85.2993V12.4842H94.0048C93.9984 11.8224 93.8552 11.2338 93.5752 10.7183C93.2952 10.1965 92.9038 9.78604 92.4011 9.48695C91.9048 9.18786 91.3257 9.03831 90.6638 9.03831C89.9575 9.03831 89.337 9.21013 88.8025 9.55376C88.2679 9.89104 87.8511 10.3365 87.552 10.8901C87.2593 11.4374 87.1098 12.0388 87.1034 12.6942V14.7274C87.1034 15.5801 87.2593 16.3119 87.5711 16.9229C87.8829 17.5274 88.3188 17.9919 88.8788 18.3165C89.4388 18.6347 90.0943 18.7938 90.8452 18.7938C91.3479 18.7938 91.8029 18.7238 92.2102 18.5838C92.6175 18.4374 92.9707 18.2242 93.2698 17.9442C93.5688 17.6642 93.7948 17.3174 93.9475 16.9038L97.1738 17.2665C96.9702 18.1192 96.582 18.8638 96.0093 19.5001C95.4429 20.1301 94.7175 20.6201 93.8329 20.9701C92.9484 21.3138 91.9366 21.4856 90.7975 21.4856ZM108.354 8.67558L105.453 1.65013H106.913L108.793 6.46104L110.683 1.65013H112.144L109.233 8.67558H108.354ZM105.004 8.67558V1.65013H106.598V8.67558H105.004ZM110.998 8.67558V1.65013H112.583V8.67558H110.998ZM100.059 8.67558V2.26104H101.644V8.67558H100.059ZM97.9212 2.97695V1.65013H103.782V2.97695H97.9212Z" fill="#1F1915"/>
<circle cx="5.76" cy="12.7209" r="5.76" fill="#1F1915"/>
</svg>
