<svg width="124" height="32" viewBox="0 0 124 32" fill="none" xmlns="http://www.w3.org/2000/svg">
<g clip-path="url(#clip0_16067_7951)">
<path fill-rule="evenodd" clip-rule="evenodd" d="M10.8117 5.2024C10.0046 5.85538 9.45871 6.83541 9.45871 8.18072C9.45871 9.53814 10.0161 10.8115 10.9079 12.0781C11.7179 13.2285 12.7766 14.3367 13.8855 15.4703C13.951 15.4063 14.0166 15.3423 14.0824 15.2784C15.111 14.2112 16.0855 13.1585 16.8429 12.0709C17.7273 10.8008 18.2845 9.52598 18.2973 8.1786C18.2967 6.84349 17.7516 5.86579 16.9441 5.21151C16.1243 4.54735 15.0111 4.20021 13.8772 4.19829C12.7432 4.19637 11.6307 4.53973 10.8117 5.2024ZM18.0325 12.0071C18.7582 10.8262 19.2448 9.56085 19.2573 8.18506L19.2573 8.18506V8.18072C19.2573 6.55024 18.5777 5.2995 17.5484 4.4656C16.5309 3.64126 15.1945 3.24052 13.8788 3.23829C12.5631 3.23607 11.226 3.6323 10.2078 4.45607C9.17768 5.28953 8.49871 6.54278 8.49871 8.18072C8.49871 9.59773 9.00572 10.8899 9.76231 12.0906C8.5599 11.339 7.26991 10.8317 5.86475 10.819L5.86475 10.819H5.86041C4.22993 10.819 2.97918 11.4986 2.14529 12.5278C1.32094 13.5453 0.920203 14.8818 0.917978 16.1974C0.915753 17.5131 1.31199 18.8502 2.13576 19.8684C2.96922 20.8986 4.22247 21.5775 5.86041 21.5775C7.25448 21.5775 8.52773 21.0868 9.71191 20.3505C8.97902 21.5381 8.49239 22.8102 8.49872 24.193C8.50614 25.8152 9.18958 27.0661 10.2177 27.9049C11.2348 28.7346 12.5692 29.1469 13.8841 29.158C15.1988 29.1692 16.5353 28.7794 17.5529 27.952C18.5825 27.1147 19.2573 25.8504 19.2573 24.1908C19.2573 22.8233 18.7992 21.5724 18.1029 20.4089C19.2698 21.1169 20.5181 21.5837 21.8727 21.5775C23.4948 21.5701 24.7458 20.8867 25.5845 19.8585C26.4143 18.8415 26.8266 17.5071 26.8377 16.1922C26.8489 14.8774 26.4591 13.5409 25.6316 12.5234C24.7944 11.4937 23.5301 10.819 21.8705 10.819C20.481 10.819 19.2118 11.2919 18.0325 12.0071ZM14.5634 16.1622C14.6298 16.0936 14.6962 16.0249 14.7625 15.9561C15.8138 14.9343 16.8523 13.9685 17.931 13.2185C19.2039 12.3334 20.4918 11.779 21.8705 11.779C23.2438 11.779 24.2335 12.3256 24.8868 13.129C25.5499 13.9445 25.8873 15.0526 25.8778 16.1841C25.8682 17.3155 25.5119 18.429 24.8407 19.2517C24.1785 20.0633 23.1962 20.6115 21.8683 20.6175C20.5227 20.6237 19.2469 20.0687 17.9696 19.1752C17.0546 18.5351 16.1627 17.7388 15.2632 16.8851C15.0314 16.6424 14.7973 16.4015 14.5634 16.1622ZM13.1559 16.185C12.0203 17.296 10.9102 18.357 9.75776 19.1684C8.49118 20.0602 7.21783 20.6175 5.86041 20.6175C4.5151 20.6175 3.53507 20.0717 2.88208 19.2646C2.21942 18.4455 1.87606 17.333 1.87798 16.1991C1.87989 15.0651 2.22704 13.9519 2.8912 13.1322C3.54546 12.3246 4.52314 11.7796 5.85819 11.779C7.20561 11.7917 8.4805 12.3489 9.75055 13.2334C10.9053 14.0375 12.0207 15.0863 13.1559 16.185ZM13.8695 16.8774C14.1068 17.1073 14.3452 17.3373 14.5852 17.5652C15.4328 18.4532 16.2227 19.3378 16.8578 20.2513C17.7428 21.5242 18.2973 22.8121 18.2973 24.1908C18.2973 25.5641 17.7506 26.5538 16.9472 27.2071C16.1318 27.8702 15.0237 28.2077 13.8922 28.1981C12.7608 28.1885 11.6473 27.8322 10.8246 27.161C10.0129 26.4988 9.46478 25.5165 9.45871 24.1886C9.45255 22.843 10.0075 21.5672 10.9011 20.2899C11.7081 19.1362 12.7636 18.0191 13.8695 16.8774Z" fill="#1F1915"/>
<path d="M100.806 24.8354V23.9282L103.502 23.4616H104.591L107.312 23.9282V24.8354H100.806ZM102.543 24.8354C102.56 24.438 102.569 23.9196 102.569 23.2802C102.586 22.6236 102.595 21.9496 102.595 21.2584C102.612 20.55 102.621 19.9279 102.621 19.3922V18.1221C102.621 17.6383 102.612 17.2236 102.595 16.878C102.595 16.5151 102.586 16.1781 102.569 15.8671C102.569 15.556 102.56 15.2277 102.543 14.8821L100.625 14.6229V13.7676L104.565 12.2383L104.954 12.4975L105.187 15.8152V15.8671V19.3922C105.187 19.9279 105.187 20.55 105.187 21.2584C105.204 21.9496 105.213 22.6236 105.213 23.2802C105.23 23.9196 105.247 24.438 105.265 24.8354H102.543ZM105.135 17.7333L104.643 16.0226H105.031C105.291 15.2104 105.619 14.5279 106.016 13.9749C106.431 13.4047 106.88 12.9727 107.364 12.6789C107.865 12.3852 108.358 12.2383 108.842 12.2383C109.274 12.2383 109.662 12.342 110.008 12.5493C110.371 12.7394 110.621 13.0332 110.76 13.4306C110.742 14.0181 110.596 14.476 110.319 14.8044C110.06 15.1154 109.68 15.2709 109.179 15.2709C108.868 15.2709 108.574 15.2018 108.297 15.0636C108.038 14.9253 107.779 14.7266 107.52 14.4674L106.82 13.7676L108.012 13.6898C107.321 14.0527 106.733 14.5797 106.25 15.2709C105.766 15.9448 105.394 16.7656 105.135 17.7333Z" fill="#1F1915"/>
<path d="M94.0696 25.1724C92.9982 25.1724 92.0046 24.9304 91.0888 24.4466C90.1902 23.9455 89.4644 23.2197 88.9115 22.2693C88.3585 21.3016 88.082 20.1266 88.082 18.7442C88.082 17.3445 88.3585 16.1608 88.9115 15.1932C89.4817 14.2255 90.2248 13.4911 91.1406 12.99C92.0564 12.4888 93.0328 12.2383 94.0696 12.2383C95.1236 12.2383 96.1 12.4888 96.9985 12.99C97.9144 13.4911 98.6574 14.2255 99.2276 15.1932C99.7979 16.1436 100.083 17.3272 100.083 18.7442C100.083 20.1266 99.7979 21.3016 99.2276 22.2693C98.6747 23.2197 97.9403 23.9455 97.0244 24.4466C96.1259 24.9304 95.1409 25.1724 94.0696 25.1724ZM94.0696 24.0837C94.7435 24.0837 95.3137 23.885 95.7803 23.4876C96.2641 23.0901 96.627 22.5026 96.8689 21.725C97.1281 20.9301 97.2577 19.9365 97.2577 18.7442C97.2577 17.5346 97.1281 16.5324 96.8689 15.7375C96.627 14.9426 96.2641 14.3464 95.7803 13.949C95.3137 13.5516 94.7435 13.3528 94.0696 13.3528C93.3956 13.3528 92.8168 13.5516 92.3329 13.949C91.8664 14.3464 91.5121 14.9512 91.2702 15.7634C91.0283 16.5583 90.9073 17.5605 90.9073 18.7701C90.9073 19.9452 91.0283 20.9301 91.2702 21.725C91.5121 22.5026 91.8664 23.0901 92.3329 23.4876C92.8168 23.885 93.3956 24.0837 94.0696 24.0837Z" fill="#1F1915"/>
<path d="M74.0319 24.836V23.9288L75.8463 23.6177C75.8636 23.1857 75.8723 22.7192 75.8723 22.2181C75.8723 21.6997 75.8723 21.1985 75.8723 20.7147C75.8895 20.2136 75.8982 19.7729 75.8982 19.3928V8.01391L73.9023 7.72879V6.84751L78.1273 5.70703L78.4643 5.94031L78.3606 9.88015V14.4939L78.4383 14.779V22.7883V22.8401L78.1273 25.1211L74.0319 24.836ZM81.8598 25.1729C81.3414 25.1729 80.8403 25.0952 80.3564 24.9397C79.8899 24.7841 79.4319 24.5077 78.9827 24.1102C78.5507 23.7128 78.1359 23.1771 77.7385 22.5032H77.3238L77.5571 21.3627C78.1791 22.1576 78.7926 22.7365 79.3974 23.0993C80.0022 23.4449 80.607 23.6177 81.2118 23.6177C81.8166 23.6177 82.3609 23.4449 82.8447 23.0993C83.3286 22.7365 83.7174 22.1921 84.0111 21.4664C84.3049 20.7406 84.4518 19.8248 84.4518 18.7189C84.4518 17.0773 84.158 15.8504 83.5705 15.0382C82.983 14.2088 82.2227 13.7941 81.2895 13.7941C80.9439 13.7941 80.5724 13.8805 80.175 14.0533C79.7775 14.2088 79.3628 14.4594 78.9308 14.805C78.4988 15.1333 78.0323 15.5653 77.5311 16.101L77.2979 14.8827H77.8422C78.2742 14.2779 78.7235 13.7854 79.19 13.4053C79.6566 13.0078 80.1404 12.7141 80.6415 12.524C81.1599 12.3339 81.6956 12.2389 82.2486 12.2389C83.1644 12.2389 83.9852 12.4894 84.711 12.9906C85.454 13.4744 86.0415 14.1829 86.4735 15.116C86.9228 16.0491 87.1475 17.1982 87.1475 18.5633C87.1475 19.9112 86.9142 21.0862 86.4476 22.0885C85.9811 23.0734 85.3417 23.8337 84.5295 24.3694C83.7347 24.9051 82.8447 25.1729 81.8598 25.1729Z" fill="#1F1915"/>
<path d="M64.826 24.8354V23.9282L67.5217 23.4616H68.6103L71.3319 23.9282V24.8354H64.826ZM66.5626 24.8354C66.5799 24.438 66.5885 23.9196 66.5885 23.2802C66.6058 22.6236 66.6145 21.9496 66.6145 21.2584C66.6317 20.55 66.6404 19.9279 66.6404 19.3922V18.1221C66.6404 17.6383 66.6317 17.2236 66.6145 16.878C66.6145 16.5151 66.6058 16.1781 66.5885 15.8671C66.5885 15.556 66.5799 15.2277 66.5626 14.8821L64.6445 14.6229V13.7676L68.5844 12.2383L68.9732 12.4975L69.2065 15.8152V15.8671V19.3922C69.2065 19.9279 69.2065 20.55 69.2065 21.2584C69.2237 21.9496 69.2324 22.6236 69.2324 23.2802C69.2497 23.9196 69.2669 24.438 69.2842 24.8354H66.5626ZM69.1546 17.7333L68.6621 16.0226H69.0509C69.3101 15.2104 69.6384 14.5279 70.0359 13.9749C70.4506 13.4047 70.8999 12.9727 71.3837 12.6789C71.8849 12.3852 72.3773 12.2383 72.8612 12.2383C73.2932 12.2383 73.682 12.342 74.0276 12.5493C74.3904 12.7394 74.641 13.0332 74.7793 13.4306C74.762 14.0181 74.6151 14.476 74.3386 14.8044C74.0794 15.1154 73.6993 15.2709 73.1981 15.2709C72.8871 15.2709 72.5933 15.2018 72.3169 15.0636C72.0577 14.9253 71.7985 14.7266 71.5393 14.4674L70.8394 13.7676L72.0317 13.6898C71.3405 14.0527 70.753 14.5797 70.2692 15.2709C69.7853 15.9448 69.4138 16.7656 69.1546 17.7333Z" fill="#1F1915"/>
<path d="M56.6118 25.1724C55.6787 25.1724 54.8838 24.9045 54.2271 24.3688C53.5705 23.8332 53.2422 23.0383 53.2422 21.9842C53.2422 21.4658 53.3545 20.9733 53.5791 20.5068C53.8038 20.0402 54.2271 19.6082 54.8492 19.2108C55.4886 18.796 56.4131 18.4159 57.6227 18.0703C58.0374 17.932 58.4607 17.8024 58.8927 17.6815C59.342 17.5605 59.7913 17.4396 60.2406 17.3186C60.6899 17.1804 61.1478 17.0508 61.6143 16.9298V17.8111C60.9923 17.9839 60.3961 18.1653 59.8259 18.3554C59.2729 18.5455 58.7545 18.7183 58.2707 18.8738C57.5622 19.1157 57.0265 19.3836 56.6636 19.6773C56.318 19.9711 56.0847 20.2821 55.9638 20.6104C55.8601 20.9215 55.8083 21.2412 55.8083 21.5695C55.8083 22.2261 55.9897 22.71 56.3526 23.021C56.7327 23.3148 57.1993 23.4616 57.7523 23.4616C58.046 23.4616 58.3311 23.4184 58.6076 23.332C58.8841 23.2284 59.2124 23.0556 59.5926 22.8136C59.9727 22.5544 60.4652 22.1916 61.07 21.725L61.407 22.9692H60.5516C60.0851 23.4703 59.6531 23.885 59.2556 24.2133C58.8582 24.5416 58.4521 24.7836 58.0374 24.9391C57.6399 25.0946 57.1647 25.1724 56.6118 25.1724ZM62.7548 25.1205C61.9945 25.1205 61.3983 24.8959 60.9663 24.4466C60.5516 23.9973 60.327 23.3839 60.2924 22.6063V22.5026V16.5151C60.2924 15.6856 60.2147 15.0463 60.0591 14.597C59.9036 14.1304 59.6531 13.8108 59.3075 13.638C58.9619 13.4652 58.5126 13.3788 57.9596 13.3788C57.6486 13.3788 57.3116 13.4133 56.9487 13.4824C56.5859 13.5343 56.1711 13.638 55.7046 13.7935L56.8451 12.99L56.3267 15.0895C56.2403 15.5906 56.0675 15.9621 55.8083 16.204C55.5663 16.446 55.2639 16.5669 54.9011 16.5669C54.5209 16.5669 54.2185 16.4719 53.9939 16.2818C53.7865 16.0917 53.6569 15.8239 53.6051 15.4783C53.7951 14.4933 54.3481 13.7071 55.2639 13.1196C56.1798 12.532 57.3375 12.2383 58.7372 12.2383C59.6876 12.2383 60.4566 12.3938 61.0441 12.7048C61.6489 12.9986 62.0982 13.4824 62.3919 14.1564C62.6857 14.813 62.8326 15.677 62.8326 16.7484V22.373C62.8326 22.8568 62.9017 23.2024 63.0399 23.4098C63.1955 23.6172 63.4028 23.7208 63.662 23.7208C63.8694 23.7208 64.0422 23.669 64.1804 23.5653C64.3359 23.4616 64.4915 23.3148 64.647 23.1247L65.1395 23.6172C64.863 24.1528 64.526 24.5416 64.1286 24.7836C63.7484 25.0082 63.2905 25.1205 62.7548 25.1205Z" fill="#1F1915"/>
<path d="M35.0977 24.8355V23.8246L38.4154 23.4358H39.0634L42.4071 23.8246V24.8355H35.0977ZM37.2749 24.8355C37.3095 23.9888 37.3354 23.1248 37.3527 22.2435C37.37 21.345 37.3786 20.4378 37.3786 19.5219C37.3786 18.5888 37.3786 17.673 37.3786 16.7744V15.5821C37.3786 14.6835 37.3786 13.785 37.3786 12.8864C37.3786 11.9706 37.37 11.0634 37.3527 10.1648C37.3354 9.26624 37.3095 8.3936 37.2749 7.54688H40.2298C40.2125 8.37632 40.1953 9.24032 40.178 10.1389C40.1607 11.0374 40.1521 11.9446 40.1521 12.8605C40.1521 13.7763 40.1521 14.6835 40.1521 15.5821V16.4374C40.1521 17.4397 40.1521 18.4246 40.1521 19.3923C40.1521 20.3427 40.1607 21.2758 40.178 22.1917C40.1953 23.0902 40.2125 23.9715 40.2298 24.8355H37.2749ZM38.7524 16.567V15.4006H49.2241V16.567H38.7524ZM45.5693 24.8355V23.8246L48.913 23.4358H49.561L52.8788 23.8246V24.8355H45.5693ZM47.7466 24.8355C47.7812 23.9888 47.7985 23.1162 47.7985 22.2176C47.8157 21.319 47.8244 20.3859 47.8244 19.4182C47.8244 18.4506 47.8244 17.457 47.8244 16.4374V15.5821C47.8244 14.6835 47.8244 13.785 47.8244 12.8864C47.8244 11.9706 47.8157 11.0634 47.7985 10.1648C47.7985 9.26624 47.7812 8.3936 47.7466 7.54688H50.6756C50.6583 8.37632 50.641 9.24032 50.6237 10.1389C50.6065 11.0374 50.5978 11.9446 50.5978 12.8605C50.5978 13.7763 50.5978 14.6835 50.5978 15.5821V16.7744C50.5978 17.6557 50.5978 18.5542 50.5978 19.4701C50.5978 20.3859 50.6065 21.2931 50.6237 22.1917C50.641 23.0902 50.6583 23.9715 50.6756 24.8355H47.7466ZM35.0977 8.55776V7.54688H42.4071V8.55776L39.0634 8.94656H38.4154L35.0977 8.55776ZM45.5693 8.55776V7.54688H52.8788V8.55776L49.561 8.94656H48.913L45.5693 8.55776Z" fill="#1F1915"/>
<path d="M115.609 9.87419L114.275 6.86328H114.815L115.748 9.07237L116.681 6.86328H117.221L115.887 9.87419H115.609ZM114.177 9.87419V6.86328H114.701V9.87419H114.177ZM116.795 9.87419V6.86328H117.319V9.87419H116.795ZM112.213 9.87419V7.1251H112.737V9.87419H112.213ZM111.297 7.32146V6.86328H113.653V7.32146H111.297Z" fill="#1F1915"/>
</g>
<defs>
<clipPath id="clip0_16067_7951">
<rect width="122.88" height="30.72" fill="white" transform="translate(0.917969 0.839844)"/>
</clipPath>
</defs>
</svg>
