<svg width="103" height="32" viewBox="0 0 103 32" fill="none" xmlns="http://www.w3.org/2000/svg">
<g clip-path="url(#clip0_16067_7950)">
<path d="M34.42 10.9456C34.42 14.9545 42.8988 13.7565 42.8988 19.263C42.8988 21.8205 40.9634 24.0093 37.3 24.0093C35.2034 24.0093 33.2911 23.295 31.9778 22.2352L31.6783 18.9174H32.5308C32.8303 19.6317 33.0607 20.2307 33.3372 20.6224C33.9362 21.6592 35.1573 22.7421 37.254 22.7421C39.3967 22.7421 40.6178 21.4979 40.6178 19.8851C40.6178 15.5997 32.1391 17.1433 32.1391 11.5677C32.1391 9.17151 34.0284 7.16703 37.5074 7.16703C38.8437 7.16703 40.3413 7.53567 41.6776 8.06559L41.9772 11.2451H41.1016C40.9173 10.7613 40.6408 10.1853 40.4796 9.93183C39.8344 8.84895 38.6594 8.43423 37.5765 8.43423C35.549 8.43423 34.42 9.58623 34.42 10.9456ZM49.436 22.9033C51.4635 22.9033 52.7768 20.9449 52.7768 17.8576C52.7768 14.7702 51.4635 12.8349 49.436 12.8349C47.4085 12.8349 46.0952 14.7702 46.0952 17.8576C46.0952 20.9449 47.4085 22.9033 49.436 22.9033ZM43.676 17.8576C43.676 14.2633 46.0491 11.752 49.436 11.752C52.8229 11.752 55.173 14.2633 55.173 17.8576C55.173 21.4518 52.8229 23.9862 49.436 23.9862C46.0491 23.9862 43.676 21.4518 43.676 17.8576ZM60.0351 27.4192C60.0351 28.2717 60.542 28.7555 61.3945 28.7555H62.2239V29.631H56.0722V28.7555H56.8095C57.5007 28.7555 57.8924 28.2717 57.8924 27.4192V15.2771C57.8924 13.7334 57.662 13.6182 55.911 13.7565V12.8809C57.7311 12.6966 58.3532 12.4893 59.0674 11.9824H60.0351V13.8717C61.0258 12.5353 62.3852 11.752 63.9519 11.752C66.6937 11.752 68.3986 13.9408 68.3986 17.8576C68.3986 21.6131 66.5554 23.9862 63.5833 23.9862C62.0857 23.9862 60.8646 23.3872 60.0351 22.3043V27.4192ZM60.0351 20.5302C60.519 21.9126 61.4866 22.6499 62.7769 22.6499C64.6892 22.6499 66.0025 21.0832 66.0025 18.0419C66.0025 14.8624 64.8735 13.2265 63.2377 13.2265C61.9474 13.2265 60.8415 13.9869 60.0351 15.3923V20.5302ZM73.1985 21.4288C73.1985 22.2813 73.5902 22.7651 74.2814 22.7651H74.9726V23.6406H69.2356V22.7651H69.9729C70.6641 22.7651 71.0558 22.2813 71.0558 21.4288V9.26367C71.0558 7.71999 70.8254 7.60479 69.0744 7.74303V6.86751C70.8945 6.68319 71.5166 6.47583 72.2308 5.96895H73.1985V13.8947C74.6731 12.3971 76.1937 11.752 77.484 11.752C79.4193 11.752 80.5944 12.904 80.5944 15.0928V21.4288C80.5944 22.2813 80.986 22.7651 81.6772 22.7651H82.4145V23.6406H76.6776V22.7651H77.3688C78.06 22.7651 78.4516 22.2813 78.4516 21.4288V15.4153C78.4516 14.0329 77.7835 13.2957 76.5624 13.2957C75.5947 13.2957 74.3505 13.8947 73.1985 15.1158V21.4288ZM86.6544 21.4288C86.6544 22.2813 87.0461 22.7651 87.7373 22.7651H88.4746V23.6406H82.6915V22.7651H83.4288C84.12 22.7651 84.5117 22.2813 84.5117 21.4288V15.2771C84.5117 13.7334 84.2813 13.6182 82.5303 13.7565V12.8809C84.3504 12.6966 84.9725 12.4893 85.6867 11.9824H86.6544V21.4288ZM84.12 8.48031V8.31903C84.12 7.51263 84.5808 7.05183 85.3872 7.05183H85.5485C86.3779 7.05183 86.8387 7.51263 86.8387 8.31903V8.48031C86.8387 9.28671 86.3779 9.74751 85.5485 9.74751H85.3872C84.5808 9.74751 84.12 9.28671 84.12 8.48031ZM94.2889 11.752C96.8233 11.752 98.5283 12.9731 98.5283 15.3232V21.6822C98.5283 22.3965 98.8048 22.7881 99.2886 22.7881C99.5881 22.7881 99.8646 22.7421 100.348 22.5347L100.556 23.3872C99.2425 23.8941 98.7587 23.9632 98.1597 23.9632C96.9385 23.9632 96.3856 23.2029 96.3856 22.0509V22.0278C95.4409 23.2489 94.1507 23.9862 92.607 23.9862C90.5565 23.9862 89.2432 22.7881 89.2432 20.6454C89.2432 17.8115 92.607 16.4061 96.3856 16.383V15.4153C96.3856 13.6873 95.5101 12.7888 94.0816 12.7888C92.3305 12.7888 91.4089 13.7795 90.6717 15.3462H89.8653L90.0957 12.6966C91.432 12.0745 92.9526 11.752 94.2889 11.752ZM91.6163 20.4381C91.6163 21.7283 92.3536 22.5117 93.4365 22.5117C94.6345 22.5117 95.6713 21.7513 96.3856 20.4611V17.3968C93.4825 17.4198 91.6163 18.2723 91.6163 20.4381Z" fill="#1F1915"/>
<path d="M11.7192 4.67969C11.7192 4.67969 11.5674 11.1603 14.163 13.7559C16.7586 16.3515 23.2392 16.1997 23.2392 16.1997C23.2392 16.1997 16.7586 16.0479 14.163 18.6434C11.5674 21.239 11.7192 27.7197 11.7192 27.7197C11.7192 27.7197 11.871 21.239 9.27546 18.6434C6.67986 16.0479 0.199219 16.1997 0.199219 16.1997C0.199219 16.1997 6.67986 16.3515 9.27546 13.7559C11.871 11.1603 11.7192 4.67969 11.7192 4.67969Z" stroke="#1F1915" stroke-width="1.44"/>
</g>
<defs>
<clipPath id="clip0_16067_7950">
<rect width="102.72" height="30.72" fill="white" transform="translate(0.199219 0.839844)"/>
</clipPath>
</defs>
</svg>
