<svg width="79" height="24" viewBox="0 0 79 24" fill="none" xmlns="http://www.w3.org/2000/svg">
<path d="M2.73529 6.02941C2.73529 3.47059 4.76471 1.52941 7.94118 1.52941C11.1176 1.52941 13.0588 3.35294 13.0588 5.76471C13.0588 7.94118 11.2059 9.79412 8.52941 11L14.0882 17.2059C14.9412 15.8529 15.5882 14.2059 16 12.3235L18.0882 13.0588C17.4118 15.2647 16.5294 17.1471 15.3824 18.6765L16.5882 20C17.3235 20.8235 18.1176 21.2941 19.2353 21.2941H20.3529V22.5588H15L13.4706 20.7647C11.7353 22.2059 9.64706 23 7.2353 23C2.85294 23 0 20.6471 0 17.3235C0 14.4118 2.08824 12.4118 5.11765 11C4.44118 10.2941 2.73529 8.29412 2.73529 6.02941ZM3.05882 17C3.05882 19.5 4.76471 21.3529 7.44118 21.3529C9.29412 21.3529 10.9412 20.6471 12.3235 19.4118L6.05882 12.0882C4.17647 13.0882 3.05882 14.8529 3.05882 17ZM5.58824 5.94118C5.58824 7.82353 6.73529 9.02941 7.58824 9.94118C9.44118 8.94118 10.3824 7.5 10.3824 5.76471C10.3824 4.11765 9.38235 3.08823 7.97059 3.08823C6.55882 3.08823 5.58824 4.20588 5.58824 5.94118Z" fill="#1E1C1A"/>
<path d="M24.5246 19C24.5246 20.5882 25.3187 21.2941 27.1422 21.2941H28.1128V22.5588H18.5246V21.2941H19.4952C20.9069 21.2941 21.5246 20.7647 21.5246 19.5882V4.91176C21.5246 3.73529 20.9069 3.20588 19.4952 3.20588H18.5246V1.97059H34.3481L35.7011 7.35294H34.4952L34.3187 6.91177C33.554 4.73529 32.7305 3.26471 29.2011 3.26471H27.0246C25.2893 3.26471 24.5246 3.91177 24.5246 5.38235V11.5588H29.6128C30.7893 11.5588 31.3187 11 31.3187 9.70588V8.82353H32.554V15.7353H31.3187V14.8529C31.3187 13.5588 30.7893 13 29.6128 13H24.5246V19Z" fill="#1E1C1A"/>
<path d="M40.8782 21.6176C43.4665 21.6176 45.1429 19.1176 45.1429 15.1765C45.1429 11.2353 43.4665 8.76471 40.8782 8.76471C38.29 8.76471 36.6135 11.2353 36.6135 15.1765C36.6135 19.1176 38.29 21.6176 40.8782 21.6176ZM33.5253 15.1765C33.5253 10.5882 36.5547 7.38235 40.8782 7.38235C45.2018 7.38235 48.2017 10.5882 48.2017 15.1765C48.2017 19.7647 45.2018 23 40.8782 23C36.5547 23 33.5253 19.7647 33.5253 15.1765Z" fill="#1E1C1A"/>
<path d="M52.3681 19.7353C52.3681 20.8235 52.8681 21.4412 53.7505 21.4412H54.6916V22.5588H47.3093V21.4412H48.2505C49.1328 21.4412 49.6328 20.8235 49.6328 19.7353V4.20588C49.6328 2.23529 49.3387 2.08823 47.1034 2.2647V1.14706C49.4269 0.911763 50.2211 0.647057 51.1328 0H52.3681V19.7353Z" fill="#1E1C1A"/>
<path d="M67.1912 19.7353C67.1912 20.8235 67.6912 21.4412 68.5735 21.4412H69.5147V22.5588H64.4559V20.0588C63.1618 21.8824 61.3677 23 59.2794 23C55.7794 23 53.5735 20.2059 53.5735 15.2059C53.5735 10.4118 55.9559 7.38235 59.75 7.38235C61.7794 7.38235 63.3971 8.23529 64.4559 9.79412V4.20588C64.4559 2.23529 64.1618 2.08823 61.9265 2.2647V1.14706C64.25 0.911763 65.0441 0.647057 65.9559 0H67.1912V19.7353ZM56.6618 14.9706C56.6618 19 58.0735 21.1176 60.1912 21.1176C61.9559 21.1176 63.4265 20.0294 64.4559 18.0294V12.5C63.9265 10.2941 62.6324 9.08823 60.7794 9.08823C58.3088 9.08823 56.6618 11.0588 56.6618 14.9706Z" fill="#1E1C1A"/>
<path d="M70.2904 0.0552518H73.7174V0.802692H72.4199V4.25784H71.5879V0.802692H70.2904V0.0552518ZM74.9725 4.25784H74.1405V0.0552518H75.0994L76.3405 3.05912L77.5956 0.0552518H78.5405V4.25784H77.7084V1.56424L76.5943 4.25784H76.0866L74.9725 1.57834V4.25784Z" fill="#1E1C1A"/>
</svg>
